<svg width="310" height="304" viewBox="0 0 310 304" fill="none" xmlns="http://www.w3.org/2000/svg"><path d="M218 224h1l2-6 1 6h1l2-8h-1l-1 6-2-6h-1l-1 6h-1l-1-6h-1l2 8Z" fill="#fff"/><path d="M226 224h5v-1h-4v-3h3-3v-3h4v-1h-5v8Z" fill="#fff"/><path d="M232 224h3l2-2-1-2 1-2-2-2h-3v8Zm1-1v-3h2l1 2-1 1h-2Zm0-3v-3h2l1 1-1 2h-2Z" fill="#fff"/><path d="M207 224h1l2-6 1 6h1l2-8h-1l-1 6-2-6h-1l-1 6-2-6h-1l2 8Z" fill="#fff"/><path d="M215 224h5v-1h-4v-3h3-3v-3h4v-1h-5v8Z" fill="#fff"/><path d="M221 224h3c2 0 2-1 2-2l-1-2 1-2-2-2h-3v8Zm1-1v-3h2l1 2-1 1h-2Zm0-3v-3h2l1 1-1 2h-2Z" fill="#fff"/><path d="M205 232h1l2-6 1 6h1l2-8h-1l-1 6-2-6h-1l-1 6-2-6h-1l2 8Z" fill="#fff"/><path d="M213 232h5v-1h-4v-3h3-3v-3h4v-1h-5v8Z" fill="#fff"/><path d="M219 232h3c2 0 2-1 2-2l-1-2 1-2-2-2h-3v8Zm1-1v-3h2l1 2-1 1h-2Zm0-3v-3h2l1 1-1 2h-2Z" fill="#fff"/><path d="M231 248h1l1-6 2 6h1l2-8h-1l-2 6-1-6h-1l-2 6-1-6h-1l2 8Z" fill="#fff"/><path d="M239 248h4v-1h-3v-3h3-3v-3h3v-1h-4v8Z" fill="#fff"/><path d="M245 248h2c2 0 3-1 3-2 0-2-1-2-2-2l2-2c0-1-1-2-3-2h-2v8Zm1-1v-3h1l2 2-2 1h-1Zm0-4v-2h1l2 1-2 1h-1Z" fill="#fff"/><path d="M192 247h1l1-6 2 6h1l2-8h-1l-2 6-1-6h-1l-2 6-1-6h-1l2 8Z" fill="#fff"/><path d="M200 247h4v-1h-3v-3h3-3v-3h3v-1h-4v8Z" fill="#fff"/><path d="M206 247h3l2-2c0-2-1-2-2-2l2-2c0-1-1-2-3-2h-2v8Zm1-1v-3h2l1 2-1 1h-2Zm0-4v-2h1l2 1-2 1h-1Z" fill="#fff"/><path d="M188 274h1l1-5 2 5h1l2-7h-1l-2 6-1-6h-1l-2 6-1-6h-1l2 7Z" fill="#fff"/><path d="M196 274h4-3v-3h3v-1h-3v-2h3v-1h-4v7Z" fill="#fff"/><path d="M202 274h3l2-1c0-2-1-2-2-2l2-2c0-1-1-2-3-2h-2v7Zm1 0v-3h2l1 2-1 1h-2Zm0-4v-2h1l2 1-2 1h-1Z" fill="#fff"/><path d="M173 294h1l1-5 2 5h1l2-7h-1l-2 6-1-6h-1l-2 6-1-6h-1l2 7Z" fill="#fff"/><path d="M181 294h4-3v-3h3v-1h-3v-2h3v-1h-4v7Z" fill="#fff"/><path d="M187 294h3c1 0 2 0 2-2l-1-1 1-2c0-1-1-2-3-2h-2v7Zm1 0v-3h2l1 1-1 2h-2Zm0-4v-2h1l2 1-2 1h-1Z" fill="#fff"/><path d="M137 298h1l1-5 2 5h1l2-7h-1l-1 6-2-6h-1l-2 6-1-6h-1l2 7Z" fill="#fff"/><path d="M145 298h5-4v-3h3v-1h-3v-2h3v-1h-4v7Z" fill="#fff"/><path d="M151 298h3c1 0 2 0 2-2l-1-1 1-2-2-2h-3v7Zm1 0v-3h2l1 1-1 2h-2Zm0-4v-2h2l1 1-1 1h-2Z" fill="#fff"/><path d="M210 265h1l2-6 1 6h1l2-8h-1l-1 6-2-6h-1l-1 6h-1l-1-6h-1l2 8Z" fill="#fff"/><path d="M218 265h5v-1h-4v-3h3v-1h-3v-2h4v-1h-5v8Z" fill="#fff"/><path d="M224 265h3c2 0 2-1 2-2l-1-2 1-2-2-2h-3v8Zm1-1v-3h2l1 2-1 1h-2Zm0-4v-2h2l1 1-1 1h-2Z" fill="#fff"/><path d="M208 275h1l2-5 1 5h1l2-7h-1l-1 6-2-6h-1l-1 6-2-6h-1l2 7Z" fill="#fff"/><path d="M216 275h5-4v-3h3v-1h-3v-2h4v-1h-5v7Z" fill="#fff"/><path d="M222 275h3l2-1-1-2 1-2-2-2h-3v7Zm1 0v-3h2l1 2-1 1h-2Zm0-4v-2h2l1 1-1 1h-2Z" fill="#fff"/><path d="M199 268h1l2-5 1 5h1l2-7h-1l-1 6-2-6h-1l-1 6-2-6h-1l2 7Z" fill="#fff"/><path d="M207 268h5-4v-3h3v-1h-3v-2h4v-1h-5v7Z" fill="#fff"/><path d="M213 268h3l2-1-1-2 1-2-2-2h-3v7Zm1 0v-3h2l1 2-1 1h-2Zm0-4v-2h2l1 1-1 1h-2Z" fill="#fff"/><path d="M184 288h1l2-5 1 5h1l2-7h-1l-1 6-2-6h-1l-1 6-2-6h-1l2 7Z" fill="#fff"/><path d="M192 288h5-4v-3h3v-1h-3v-2h4v-1h-5v7Z" fill="#fff"/><path d="M198 288h3l2-1-1-2 1-2-2-2h-3v7Zm1 0v-3h2l1 2-1 1h-2Zm0-4v-2h2l1 1-1 1h-2Z" fill="#fff"/><path d="M148 292h1l2-5 1 5h1l2-7h-1l-1 6-2-6h-1l-1 6-2-6h-1l2 7Z" fill="#fff"/><path d="M156 292h5-4v-3h4v-1h-4v-2h4v-1h-5v7Z" fill="#fff"/><path d="M162 292h3l2-1-1-2 1-2-2-2h-3v7Zm1 0v-3h2l2 2-2 1h-2Zm0-4v-2h2l1 1-1 1h-2Z" fill="#fff"/><path d="M224 254h1l2-6 1 6h1l2-8h-1l-1 6-2-6h-1l-1 6h-1l-1-6h-1l2 8Z" fill="#fff"/><path d="M232 254h5v-1h-4v-3h3-3v-3h4v-1h-5v8Z" fill="#fff"/><path d="M238 254h3l2-2-1-2 1-2-2-2h-3v8Zm1-1v-3h2l1 2-1 1h-2Zm0-4v-2h2l1 1-1 1h-2Z" fill="#fff"/><path d="M227 262h1l2-6 1 6h1l2-8h-1l-1 6-2-6h-1l-1 6h-1l-1-6h-1l2 8Z" fill="#fff"/><path d="M235 262h5v-1h-4v-3h3v-1h-3v-2h4v-1h-5v8Z" fill="#fff"/><path d="M241 262h3l2-2-1-2 1-2-2-2h-3v8Zm1-1v-3h2l1 2-1 1h-2Zm0-4v-2h2l1 1-1 1h-2Z" fill="#fff"/><path d="M225 269h1l2-5 1 5h1l2-7h-1l-1 6-2-6h-1l-1 6h-1l-1-6h-1l2 7Z" fill="#fff"/><path d="M233 269h5-4v-3h3v-1h-3v-2h4v-1h-5v7Z" fill="#fff"/><path d="M239 269h3l2-1-1-2 1-2-2-2h-3v7Zm1 0v-3h2l1 2-1 1h-2Zm0-4v-2h2l1 1-1 1h-2Z" fill="#fff"/><path d="M207 284h1l2-5 1 5h1l2-7h-1l-1 6-2-6h-1l-1 6-2-6h-1l2 7Z" fill="#fff"/><path d="M215 284h5-4v-3h3v-1h-3v-2h4v-1h-5v7Z" fill="#fff"/><path d="M221 284h3l2-1-1-2 1-2-2-2h-3v7Zm1 0v-3h2l1 2-1 1h-2Zm0-4v-2h2l1 1-1 1h-2Z" fill="#fff"/><path d="M291 140h1l1-6 2 6h1l2-7h-1l-2 5-1-5h-1l-2 5-1-5h-1l2 7Z" fill="#fff"/><path d="M299 140h4v-1h-3v-2h3v-1h-3v-3h3-4v7Z" fill="#fff"/><path d="M305 140h3l2-2-1-2 1-1c0-2-1-2-3-2h-2v7Zm1-1v-2h2l1 1-1 1h-2Zm0-3v-3h1l2 2-2 1h-1Z" fill="#fff"/><path d="M282 111h1l1-6 2 6h1l2-7h-1l-1 6h-1l-1-6h-1l-2 6-1-6h-1l2 7Z" fill="#fff"/><path d="M290 111h4v-1h-3v-2h3v-1h-3v-3h3-4v7Z" fill="#fff"/><path d="M296 111h3l2-2-1-2 1-1-2-2h-3v7Zm1-1v-2h2l1 1-1 1h-2Zm0-3v-3h2l1 2-2 1h-1Z" fill="#fff"/><path d="M288 117h1l1-6 2 6h1l2-7h-1l-1 6h-1l-1-6h-1l-2 6-1-6h-1l2 7Z" fill="#fff"/><path d="M296 117h4v-1h-3v-2h3v-1h-3v-3h3-4v7Z" fill="#fff"/><path d="M302 117h3l2-2-1-2 1-1-2-2h-3v7Zm1-1v-2h2l1 1-1 1h-2Zm0-3v-3h2l1 2-2 1h-1Z" fill="#fff"/><path d="M268 88h1l1-6 2 6h1l2-7h-1l-1 6h-1l-1-6h-1l-2 6-1-6h-1l2 7Z" fill="#fff"/><path d="M276 88h4v-1h-3v-2h3v-1h-3v-2h3v-1h-4v7Z" fill="#fff"/><path d="M282 88h3l2-2-1-2 1-1-2-2h-3v7Zm1-1v-2h2l1 1-1 1h-2Zm0-3v-2h2l1 1-1 1h-2Z" fill="#fff"/><path d="M237 47h1l2-6 1 6h1l2-7h-1l-1 6-2-6h-1l-2 6-1-6h-1l2 7Z" fill="#fff"/><path d="M245 47h5v-1h-4v-2h3v-1h-3v-2h4v-1h-5v7Z" fill="#fff"/><path d="M251 47h3l2-2-1-2 1-1-2-2h-3v7Zm1-1v-2h2l1 1-1 1h-2Zm0-3v-2h2l1 1-1 1h-2Z" fill="#fff"/><path d="M212 52h1l2-6 1 6h1l2-7h-1l-1 6-2-6h-1l-1 6h-1l-1-6h-1l2 7Z" fill="#fff"/><path d="M220 52h5v-1h-4v-2h3v-1h-3v-2h4v-1h-5v7Z" fill="#fff"/><path d="M226 52h3c2 0 2-1 2-2l-1-2 1-1-2-2h-3v7Zm1-1v-2h2l1 1-1 1h-2Zm0-3v-2h2l1 1-1 1h-2Z" fill="#fff"/><path d="M186 58h1l2-6 1 6h1l2-7h-1l-1 6-2-6h-1l-1 6-2-6h-1l2 7Z" fill="#fff"/><path d="M194 58h5v-1h-4v-2h3v-1h-3v-2h4v-1h-5v7Z" fill="#fff"/><path d="M200 58h3c2 0 2-1 2-2l-1-2 1-1-2-2h-3v7Zm1-1v-2h2l1 1-1 1h-2Zm0-3v-2h2l1 1-1 1h-2Z" fill="#fff"/><path d="M176 284h1l2-5 1 5h1l2-7h-1l-1 6-2-6h-1l-1 6-2-6h-1l2 7Z" fill="#fff"/><path d="M184 284h5-4v-3h3v-1h-3v-2h4v-1h-5v7Z" fill="#fff"/><path d="M190 284h3l2-1-1-2 1-2-2-2h-3v7Zm1 0v-3h2l1 2-1 1h-2Zm0-4v-2h2l1 1-1 1h-2Z" fill="#fff"/><path d="M173 177h1l2-6 1 6h1l2-8h-1l-1 6-2-6h-1l-1 6-2-6h-1l2 8Z" fill="#fff"/><path d="M181 177h5v-1h-4v-3h3-3v-3h4v-1h-5v8Z" fill="#fff"/><path d="M187 177h3c2 0 2-1 2-2l-1-2 1-2-2-2h-3v8Zm1-1v-3h2l1 2-1 1h-2Zm0-3v-3h2l1 1-1 2h-2Z" fill="#fff"/><path d="M76 280h1l2-5 2 5h1l1-7-2 6-2-6h-1l-1 6-2-6h-1l2 7Z" fill="#fff"/><path d="M85 280h4-4v-3h4v-1h-4v-2h4v-1h-4v7Z" fill="#fff"/><path d="M91 280h2l3-1c0-2-1-2-2-2l1-2c0-1 0-2-2-2h-2v7Zm0 0v-3h2l2 2-2 1h-2Zm0-4v-2h2l1 1-1 1h-2Z" fill="#fff"/><path d="M69 264h1l2-6 2 6h1l2-8h-1l-2 6-2-6-2 6-2-6h-1l2 8Z" fill="#fff"/><path d="M78 264h4v-1h-4v-3h4v-1h-4v-2h4v-1h-4v8Z" fill="#fff"/><path d="M84 264h2c2 0 3-1 3-2 0-2-1-2-2-2l1-2c0-1 0-2-2-2h-2v8Zm0-1v-3h2l2 2-2 1h-2Zm0-4v-2h2l1 1-1 1h-2Z" fill="#fff"/><path d="M86 245h1l2-6 2 6 2-8-2 6-2-6h-1l-1 6-2-6h-1l2 8Z" fill="#fff"/><path d="M95 245h4v-1h-4v-3h4-4v-3h4v-1h-4v8Z" fill="#fff"/><path d="M101 245h2c2 0 3-1 3-2 0-2-1-2-2-2l1-2c0-1 0-2-2-2h-2v8Zm0-1v-3h2l2 2-2 1h-2Zm0-4v-2h2l1 1-1 1h-2Z" fill="#fff"/><path d="m39 200 2-6 2 6h1l2-8h-1l-2 6-1-6h-1l-2 6-2-6 2 8Z" fill="#fff"/><path d="M47 200h4v-1h-3v-3h3-3v-3h3v-1h-4v8Z" fill="#fff"/><path d="M53 200h2c2 0 3-1 3-2l-2-2 1-2c0-1 0-2-2-2h-2v8Zm1-1v-3h1l2 2-2 1h-1Zm0-3v-3h1l2 1-2 2h-1Z" fill="#fff"/><path d="M162 153h1l2-6 1 6h1l2-7h-1l-1 5-2-5h-1l-1 5-2-5h-1l2 7Z" fill="#fff"/><path d="M170 153h5v-1h-4v-2h4v-1h-4v-3h4-5v7Z" fill="#fff"/><path d="M176 153h3c2 0 2-1 2-2l-1-2 1-2-2-1h-3v7Zm1-1v-2h2l2 1-2 1h-2Zm0-3v-3h2l1 1-1 2h-2Z" fill="#fff"/><path d="M144 146h1l2-6 1 6h1l2-7h-1l-1 5-2-5h-1l-1 5-2-5h-1l2 7Z" fill="#fff"/><path d="M152 146h5v-1h-4v-2h4v-1h-4v-3h4-5v7Z" fill="#fff"/><path d="M158 146h3c2 0 2-1 2-2l-1-2 1-1c0-2-1-2-2-2h-3v7Zm1-1v-2h2l2 1-2 1h-2Zm0-3v-3h2l1 2-1 1h-2Z" fill="#fff"/><path d="M163 145h1l2-6 1 6h1l2-7h-1l-1 5-2-5h-1l-1 5-2-5h-1l2 7Z" fill="#fff"/><path d="M171 145h5v-1h-4v-2h4v-1h-4v-3h4-5v7Z" fill="#fff"/><path d="M177 145h3c2 0 2-1 2-2l-1-2 1-1c0-2-1-2-2-2h-3v7Zm1-1v-2h2l2 1-2 1h-2Zm0-3v-3h2l1 2-1 1h-2Z" fill="#fff"/><path d="m50 172 2-6 2 6h1l2-7h-1l-2 5-1-5h-1l-2 5-2-5 2 7Z" fill="#fff"/><path d="M58 172h4v-1h-3v-2h3v-1h-3v-3h3-4v7Z" fill="#fff"/><path d="M64 172h2c2 0 3-1 3-2l-2-2 1-2-2-1h-2v7Zm1-1v-3h1l2 2-2 1h-1Zm0-3v-3h1l2 1-2 2h-1Z" fill="#fff"/><path d="M11 185h1l1-6 2 6h1l2-8h-1l-2 6-1-6h-1l-2 6-1-6H9l2 8Z" fill="#fff"/><path d="M19 185h4v-1h-3v-3h3-3v-3h3v-1h-4v8Z" fill="#fff"/><path d="M25 185h2c2 0 3-1 3-2l-2-2 1-2c0-1 0-2-2-2h-2v8Zm1-1v-3h1l2 2-2 1h-1Zm0-3v-3h1l2 1-2 2h-1Z" fill="#fff"/><path d="M11 171h1l1-6 2 6h1l2-7h-1l-2 5-1-5h-1l-2 5-1-5H9l2 7Z" fill="#fff"/><path d="M19 171h4v-1h-3v-2h3v-1h-3v-3h3-4v7Z" fill="#fff"/><path d="M25 171h2c2 0 3-1 3-2l-2-2 1-2-2-1h-2v7Zm1-1v-3h1l2 2-2 1h-1Zm0-3v-3h1l2 1-2 2h-1Z" fill="#fff"/><path d="m36 176 2-6 2 6h1l2-8h-1l-2 6-1-6h-1l-2 6-2-6 2 8Z" fill="#fff"/><path d="M44 176h4v-1h-3v-2h3v-1h-3v-3h3v-1h-4v8Z" fill="#fff"/><path d="M50 176h2c2 0 3-1 3-2l-2-2 1-2c0-1 0-2-2-2h-2v8Zm1-1v-3h1l2 2-2 1h-1Zm0-3v-3h1l2 1-2 2h-1Z" fill="#fff"/><path d="M16 177h1l1-6 2 6h1l2-8h-1l-2 6-1-6h-1l-2 6-1-6h-1l2 8Z" fill="#fff"/><path d="M24 177h4v-1h-3v-3h3-3v-3h3v-1h-4v8Z" fill="#fff"/><path d="M30 177h2c2 0 3-1 3-2l-2-2 1-2c0-1 0-2-2-2h-2v8Zm1-1v-3h1l2 2-2 1h-1Zm0-3v-3h1l2 1-2 2h-1Z" fill="#fff"/><path d="m30 161 2-6 2 6h1l2-7h-1l-2 5-1-5h-1l-2 5-2-5 2 7Z" fill="#fff"/><path d="M38 161h4v-1h-3v-2h3v-1h-3v-3h3-4v7Z" fill="#fff"/><path d="M44 161h2c2 0 3-1 3-2l-2-2 1-2-2-1h-2v7Zm1-1v-3h1l2 2-2 1h-1Zm0-3v-3h1l2 1-2 2h-1Z" fill="#fff"/><path d="M4 119h1l1-6 2 6h1l2-7h-1l-2 6-1-6H6l-2 6-1-6H2l2 7Z" fill="#fff"/><path d="M12 119h4v-1h-3v-2h3v-1h-3v-3h3-4v7Z" fill="#fff"/><path d="M18 119h2c2 0 3-1 3-2l-2-2 2-1c0-1-1-2-3-2h-2v7Zm1-1v-2h1l2 1-2 1h-1Zm0-3v-3h1l2 2-2 1h-1Z" fill="#fff"/><path d="M15 85h1l1-6 2 6h1l2-7h-1l-2 6-1-6h-1l-2 6-1-6h-1l2 7Z" fill="#fff"/><path d="M23 85h4v-1h-3v-2h3v-1h-3v-2h3v-1h-4v7Z" fill="#fff"/><path d="M29 85h2c2 0 3-1 3-2l-2-2 1-1c0-1 0-2-2-2h-2v7Zm1-1v-2h1l2 1-2 1h-1Zm0-3v-2h1l2 1-2 1h-1Z" fill="#fff"/><path d="m48 60 2-6 2 6h1l2-7h-1l-2 6-1-6h-1l-2 6-2-6 2 7Z" fill="#fff"/><path d="M56 60h4v-1h-3v-2h3v-1h-3v-2h3v-1h-4v7Z" fill="#fff"/><path d="M62 60h2c2 0 3-1 3-2l-2-2 1-1c0-1 0-2-2-2h-2v7Zm1-1v-2h1l2 1-2 1h-1Zm0-3v-2h1l2 1-2 1h-1Z" fill="#fff"/><path d="m48 47 2-6 2 6h1l2-7h-1l-2 6-1-6h-1l-2 6-2-6 2 7Z" fill="#fff"/><path d="M56 47h4v-1h-3v-2h3v-1h-3v-2h3v-1h-4v7Z" fill="#fff"/><path d="M62 47h2c2 0 3-1 3-2l-2-2 1-1c0-1 0-2-2-2h-2v7Zm1-1v-2h1l2 1-2 1h-1Zm0-3v-2h1l2 1-2 1h-1Z" fill="#fff"/><path d="m34 63 2-6 2 6h1l2-7h-1l-2 6-1-6h-1l-2 6-2-6 2 7Z" fill="#fff"/><path d="M42 63h4v-1h-3v-2h3v-1h-3v-2h3v-1h-4v7Z" fill="#fff"/><path d="M48 63h2c2 0 3-1 3-2l-2-2 1-1c0-1 0-2-2-2h-2v7Zm1-1v-2h1l2 1-2 1h-1Zm0-3v-2h1l2 1-2 1h-1Z" fill="#fff"/><path d="M66 51h1l2-6 2 6h1l2-7h-1l-2 6-1-6h-1l-2 6-2-6h-1l2 7Z" fill="#fff"/><path d="M75 51h4v-1h-4v-2h4v-1h-4v-2h4v-1h-4v7Z" fill="#fff"/><path d="M81 51h2c2 0 3-1 3-2l-2-2 1-1c0-1 0-2-2-2h-2v7Zm0-1v-2h2l2 1-2 1h-2Zm0-3v-2h2l2 1-2 1h-2Z" fill="#fff"/><path d="M63 37h1l2-6 2 6h1l2-7h-1l-2 6-1-6h-1l-2 6-2-6h-1l2 7Z" fill="#fff"/><path d="M72 37h4v-1h-3v-2h3v-1h-3v-2h3v-1h-4v7Z" fill="#fff"/><path d="M78 37h2c2 0 3-1 3-2l-2-2 1-1c0-1 0-2-2-2h-2v7Zm0-1v-2h2l2 1-2 1h-2Zm0-3v-2h2l2 1-2 1h-2Z" fill="#fff"/><path d="M95 26h1l2-6 2 6 2-7-2 6-2-6h-1l-1 6-2-6h-1l2 7Z" fill="#fff"/><path d="M104 26h4v-1h-4v-2h4v-1h-4v-2h4v-1h-4v7Z" fill="#fff"/><path d="M109 26h3c2 0 3-1 3-2l-2-2 1-1c0-1 0-2-2-2h-3v7Zm1-1v-2h2l2 1-2 1h-2Zm0-3v-2h2l1 1-1 1h-2Z" fill="#fff"/><path d="M94 43h1l2-6 2 6 2-7-2 6-2-6h-1l-1 6-2-6h-1l2 7Z" fill="#fff"/><path d="M103 43h4v-1h-4v-2h4v-1h-4v-2h4v-1h-4v7Z" fill="#fff"/><path d="M109 43h2c2 0 3-1 3-2l-2-2 1-1c0-1 0-2-2-2h-2v7Zm0-1v-2h2l2 1-2 1h-2Zm0-3v-2h2l1 1-1 1h-2Z" fill="#fff"/><path d="M110 39h1l2-6 2 6 2-7-2 6-2-6h-1l-1 6-2-6h-1l2 7Z" fill="#fff"/><path d="M118 39h5v-1h-4v-2h4v-1h-4v-2h4v-1h-5v7Z" fill="#fff"/><path d="M124 39h3c2 0 3-1 3-2l-2-2 1-1c0-1 0-2-2-2h-3v7Zm1-1v-2h2l2 1-2 1h-2Zm0-3v-2h2l1 1-1 1h-2Z" fill="#fff"/><path d="M136 17h1l2-6 1 6h1l2-7h-1l-1 6-2-6h-1l-1 6-2-6h-1l2 7Z" fill="#fff"/><path d="M144 17h5v-1h-4v-2h4v-1h-4v-2h4v-1h-5v7Z" fill="#fff"/><path d="M150 17h3c2 0 2-1 2-2l-1-2 1-1-2-2h-3v7Zm1-1v-2h2l2 1-2 1h-2Zm0-3v-2h2l1 1-1 1h-2Z" fill="#fff"/><path d="M93 15h1l2-6 2 6 2-7-2 6-2-6h-1l-1 6-2-6h-1l2 7Z" fill="#fff"/><path d="M102 15h4v-1h-4v-2h4v-1h-4V9h4V8h-4v7Z" fill="#fff"/><path d="M108 15h2c2 0 3-1 3-2l-2-2 1-1c0-1 0-2-2-2h-2v7Zm0-1v-2h2l2 1-2 1h-2Zm0-3V9h2l1 1-1 1h-2Z" fill="#fff"/><path d="M144 150h1l2-6 1 6h1l2-7h-1l-1 5-2-5h-1l-1 5-2-5h-1l2 7Z" fill="#fff"/><path d="M152 150h5v-1h-4v-2h4v-1h-4v-3h4-5v7Z" fill="#fff"/><path d="M158 150h3c2 0 2-1 2-2l-1-2 1-2-2-1h-3v7Zm1-1v-2h2l2 1-2 1h-2Zm0-3v-3h2l1 1-1 2h-2Z" fill="#fff"/><path d="M123 147h1l2-6 1 6h1l2-7h-1l-1 5-2-5h-1l-1 5-2-5h-1l2 7Z" fill="#fff"/><path d="M131 147h5v-1h-4v-2h4v-1h-4v-3h4-5v7Z" fill="#fff"/><path d="M137 147h3c2 0 2-1 2-2l-1-2 1-2-2-1h-3v7Zm1-1v-2h2l2 1-2 1h-2Zm0-3v-3h2l1 1-1 2h-2Z" fill="#fff"/><path d="M107 147h1l2-6 2 6 2-7-2 5-2-5h-1l-1 5-2-5h-1l2 7Z" fill="#fff"/><path d="M116 147h4v-1h-4v-2h4v-1h-4v-3h4-4v7Z" fill="#fff"/><path d="M121 147h3c2 0 3-1 3-2l-2-2 1-2-2-1h-3v7Zm1-1v-2h2l2 1-2 1h-2Zm0-3v-3h2l1 1-1 2h-2Z" fill="#fff"/><path d="M107 157h1l2-6 2 6 2-7-2 5-2-5h-1l-1 5-2-5h-1l2 7Z" fill="#fff"/><path d="M116 157h4v-1h-4v-2h4v-1h-4v-3h4-4v7Z" fill="#fff"/><path d="M121 157h3c2 0 3-1 3-2l-2-2 1-2-2-1h-3v7Zm1-1v-3h2l2 2-2 1h-2Zm0-3v-3h2l1 1-1 2h-2Z" fill="#fff"/><path d="M125 123h1l2-6 1 6h1l2-7h-1l-1 6-2-6h-1l-1 6-2-6h-1l2 7Z" fill="#fff"/><path d="M133 123h5v-1h-4v-2h4v-1h-4v-3h4-5v7Z" fill="#fff"/><path d="M139 123h3c2 0 2-1 2-2l-1-2 1-1-2-2h-3v7Zm1-1v-2h2l2 1-2 1h-2Zm0-3v-3h2l1 2-1 1h-2Z" fill="#fff"/><path d="M161 167h1l2-6 1 6h1l2-7h-1l-1 5-2-5h-1l-1 5-2-5h-1l2 7Z" fill="#fff"/><path d="M169 167h5v-1h-4v-2h4v-1h-4v-3h4-5v7Z" fill="#fff"/><path d="M175 167h3c2 0 2-1 2-2l-1-2 1-2-2-1h-3v7Zm1-1v-3h2l2 2-2 1h-2Zm0-3v-3h2l1 1-1 2h-2Z" fill="#fff"/><path d="M64 270h1l2-5 2 5h1l2-7h-1l-2 6-1-6h-1l-2 6-2-6h-1l2 7Z" fill="#fff"/><path d="M73 270h4-3v-3h3v-1h-3v-2h3v-1h-4v7Z" fill="#fff"/><path d="M79 270h2l3-1c0-2-1-2-2-2l1-2c0-1 0-2-2-2h-2v7Zm0 0v-3h2l2 2-2 1h-2Zm0-4v-2h2l2 1-2 1h-2Z" fill="#fff"/><path d="M57 254h1l2-6 2 6h1l2-8h-1l-2 6-1-6h-1l-2 6-2-6 1 8Z" fill="#fff"/><path d="M66 254h4v-1h-3v-3h3-3v-3h3v-1h-4v8Z" fill="#fff"/><path d="M72 254h2c2 0 3-1 3-2 0-2-1-2-2-2l1-2c0-1 0-2-2-2h-2v8Zm0-1v-3h2l2 2-2 1h-2Zm0-4v-2h2l2 1-2 1h-2Z" fill="#fff"/><path d="M74 235h1l2-6 2 6h1l2-8h-1l-2 6-2-6h-1l-1 6-2-6h-1l2 8Z" fill="#fff"/><path d="M83 235h4v-1h-4v-3h4-4v-3h4v-1h-4v8Z" fill="#fff"/><path d="M89 235h2c2 0 3-1 3-2l-2-2 1-2c0-1 0-2-2-2h-2v8Zm0-1v-3h2l2 2-2 1h-2Zm0-3v-3h2l1 1-1 2h-2Z" fill="#fff"/><path d="m27 190 2-6 2 6h1l2-8h-1l-2 6-1-6h-1l-2 6-2-6 2 8Z" fill="#fff"/><path d="M35 190h4v-1h-3v-3h3-3v-3h3v-1h-4v8Z" fill="#fff"/><path d="M41 190h2c2 0 3-1 3-2l-2-2 1-2c0-1 0-2-2-2h-2v8Zm1-1v-3h1l2 2-2 1h-1Zm0-3v-3h1l2 1-2 2h-1Z" fill="#fff"/><path d="M166 276h1l2-5 1 5h1l2-7h-1l-1 6-2-6h-1l-1 6-2-6h-1l2 7Z" fill="#fff"/><path d="M174 276h5-4v-3h3v-1h-3v-2h4v-1h-5v7Z" fill="#fff"/><path d="M180 276h3l2-1-1-2 1-2-2-2h-3v7Zm1 0v-3h2l2 2-2 1h-2Zm0-4v-2h2l1 1-1 1h-2Z" fill="#fff"/><path d="M151 296h1l2-5 1 5h1l2-7h-1l-1 6-2-6h-1l-1 6-2-6h-1l2 7Z" fill="#fff"/><path d="M159 296h5-4v-3h4v-1h-4v-2h4v-1h-5v7Z" fill="#fff"/><path d="M165 296h3c2 0 2 0 2-2l-1-1 1-2-2-2h-3v7Zm1 0v-3h2l2 1-2 2h-2Zm0-4v-2h2l1 1-1 1h-2Z" fill="#fff"/><path d="M115 300h1l2-5 2 5 2-7h-1l-1 6-2-6h-1l-1 6-2-6h-1l2 7Z" fill="#fff"/><path d="M123 300h5-4v-3h4v-1h-4v-2h4v-1h-5v7Z" fill="#fff"/><path d="M129 300h3c2 0 2 0 2-2l-1-1 1-2-2-2h-3v7Zm1 0v-3h2l2 1-2 2h-2Zm0-4v-2h2l1 1-1 1h-2Z" fill="#fff"/><path d="M189 225h1v-6h1l2 5h1l1-7h-1l-1 6-2-6h-1l-1 6-2-5h-1l3 7Z" fill="#fff"/><path d="m197 224 4-1v-1l-3 1-1-3h3v-1l-3 1v-3h3v-1h-4l1 8Z" fill="#fff"/><path d="M203 223h2c2-1 3-2 2-3l-1-1 1-2c0-1-1-2-3-2l-2 1 1 7Zm0-1v-2l2-1 2 1-2 2h-2Zm0-3v-3h1l2 1-1 2h-2Z" fill="#fff"/><path d="M214 241h1l1-6 2 5h1l1-7h-1v6l-3-6h-1v6l-3-5h-1l3 7Z" fill="#fff"/><path d="m222 240 5-1v-1l-4 1v-3h3v-1l-3 1-1-3h4v-1h-5l1 8Z" fill="#fff"/><path d="M228 239h3c2-1 2-2 2-3l-2-1 1-2-2-2-3 1 1 7Zm1-1v-2l2-1 1 1-1 2h-2Zm0-3-1-3h2l2 1-2 2h-1Z" fill="#fff"/><path d="M175 240h1l1-6 3 5 1-7-1 6-3-6-1 6-3-5 2 7Z" fill="#fff"/><path d="m183 239 5-1v-1l-4 1v-3h3v-1l-3 1v-3h3v-1h-4v8Z" fill="#fff"/><path d="M189 238h3c2-1 2-2 2-3l-2-1c1-1 2-1 1-2 0-1 0-2-2-2l-3 1 1 7Zm1-1v-2l2-1 1 1-1 2h-2Zm0-3-1-3h2l2 1-2 2h-1Z" fill="#fff"/><path d="m171 268 1-1 1-5 3 5 2-8-1 1-1 6-2-6h-1l-1 6-3-6v1l2 7Z" fill="#fff"/><path d="m179 267 5-1v-1l-4 1v-3h3v-1h-3v-2h3v-1h-4v8Z" fill="#fff"/><path d="m185 266 3-1c2 0 2-1 2-2l-2-1c1-1 2-1 1-2 0-1 0-2-2-2l-2 1v7Zm1-1v-3h2l1 1-1 2h-2Zm0-3-1-3h2l2 1-2 1-1 1Z" fill="#fff"/><path d="M156 287h1l1-6 3 6 2-8-1 1-1 6-2-6h-1l-1 6-3-6v1l2 6Z" fill="#fff"/><path d="M165 286h4v-1l-4 1v-3h3v-1h-3v-2h3v-1h-4l1 7Z" fill="#fff"/><path d="m170 286 3-1c2 0 2-1 2-2l-1-1 1-2c-1-1-1-2-3-2l-2 1v7Zm1-1v-3h2l1 1-1 2h-2Zm0-3v-3h1l2 1-2 1-1 1Z" fill="#fff"/><path d="m121 291 1-6 3 6h1l1-8-1 1-1 6-2-6h-1l-1 6-2-6-1 1 3 6Z" fill="#fff"/><path d="M129 290h4v-1l-4 1v-3h3v-1h-3v-2h3v-1h-4l1 7Z" fill="#fff"/><path d="m135 290 2-1c2 0 2-1 2-2l-1-1 1-2c-1-1-1-2-3-2l-2 1 1 7Zm0-1v-3h2l1 1c1 1 0 2-1 2h-2Zm0-3v-3h1l2 1-1 1-2 1Z" fill="#fff"/><path d="M163 263h1l1-6 3 5 2-7h-1l-1 6-2-6h-1l-1 6-3-5 2 7Z" fill="#fff"/><path d="m172 262 4-1h-4v-2l3-1v-1l-3 1v-3h3v-1l-4 1 1 7Z" fill="#fff"/><path d="M177 261h3c2 0 2-1 2-2l-1-2v-2c0-1 0-2-2-1h-2v7Zm1-1v-2h2c1-1 1 0 1 1l-1 1h-2Zm0-3-1-2 2-1 2 1-2 2h-1Z" fill="#fff"/><path d="M148 283h1l1-6 3 5 2-7h-1l-1 6-2-6h-1l-1 6-3-5 2 7Z" fill="#fff"/><path d="m157 282 4-1v-1l-4 1v-3h3v-1l-3 1v-3h3v-1l-4 1 1 7Z" fill="#fff"/><path d="M162 281h3c2 0 2-1 2-2l-1-2 1-2c-1-1-1-2-3-1h-2v7Zm1-1v-2l2-1 1 2-1 1h-2Zm0-3v-2l1-1 2 1-2 2h-1Z" fill="#fff"/><path d="m113 287 1-6 3 5h1l1-7h-1l-1 6-2-6h-1l-1 6-2-5h-1l3 7Z" fill="#fff"/><path d="m121 286 4-1v-1l-4 1v-3h3v-1l-3 1v-3h3v-1l-4 1 1 7Z" fill="#fff"/><path d="M127 285h2c2 0 2-1 2-2l-1-2 1-2c-1-1-1-2-3-1h-2l1 7Zm0-1v-2l2-1 1 2-1 1h-2Zm0-3v-2l1-1 2 1-1 2h-2Z" fill="#fff"/><path d="M161 256h1l1-6 3 5 2-7h-1l-1 6-2-6h-1l-1 6-3-5 2 7Z" fill="#fff"/><path d="m170 255 4-1h-4v-2l3-1v-1l-3 1v-3h3v-1l-4 1 1 7Z" fill="#fff"/><path d="M175 254h3c2 0 2-1 2-2l-1-2v-2c0-1 0-2-2-1h-2v7Zm1-1v-2h2c1-1 1 0 1 1l-1 1h-2Zm0-3-1-2 2-1 2 1-2 2h-1Z" fill="#fff"/><path d="M149 271h1l1-6 3 5 2-7h-1l-1 6-2-6h-1l-1 6-3-5 2 7Z" fill="#fff"/><path d="m158 270 4-1h-4v-2l3-1v-1l-3 1v-3h3v-1l-4 1 1 7Z" fill="#fff"/><path d="M163 269h3c2 0 2-1 2-2l-1-2 1-2c-1-1-1-2-3-1h-2v7Zm1-1v-2h2c1-1 1 0 1 1l-1 1h-2Zm0-3v-2l1-1 2 1-2 2h-1Z" fill="#fff"/><path d="M190 279h1l1-6 2 5h1l1-7-1 6-3-6h-1v6l-3-5h-1l3 7Z" fill="#fff"/><path d="m198 278 5-1h-4v-3h3v-1l-3 1v-3h3v-1l-4 1v7Z" fill="#fff"/><path d="M204 277h3c2 0 2-1 2-2 0-2-1-2-2-2 1 0 2-1 1-2 0-1-1-2-2-1h-3l1 7Zm1-1v-2l2-1 1 2-1 1h-2Zm0-3-1-2 2-1 2 1-2 2h-1Z" fill="#fff"/><path d="M175 304h1l1-6 3 5 1-7-1 6-3-6-1 6-3-5 2 7Z" fill="#fff"/><path d="m183 303 5-1v-1l-4 1v-3h3v-1l-3 1v-3h3v-1l-4 1v7Z" fill="#fff"/><path d="M189 302h3c2-1 2-1 2-3l-2-1c1 0 2-1 1-2 0-1 0-2-2-1h-3l1 7Zm1-1v-2l2-1 1 2-1 1h-2Zm0-3-1-3h2l2 1-2 2h-1Z" fill="#fff"/><path d="M199 293h1l1-6 2 5h1l1-7-1 6-3-6h-1v6l-3-5h-1l3 7Z" fill="#fff"/><path d="m207 292 5-1v-1l-4 1v-3h3v-1l-3 1-1-3h4v-1l-4 1v7Z" fill="#fff"/><path d="M213 291h3c2 0 2-1 2-2 0-2-1-2-2-2l1-2c0-1-1-2-2-1h-3l1 7Zm1-1v-2l2-1 1 2-1 1h-2Zm0-3-1-2 2-1 2 1-2 2h-1Z" fill="#fff"/><path d="M154 304h1l1-6 3 5 2-7h-1l-1 6-2-6h-1l-1 6-3-5 2 7Z" fill="#fff"/><path d="m163 303 4-1v-1l-4 1v-3h3v-1l-3 1v-3h3v-1l-4 1 1 7Z" fill="#fff"/><path d="M168 302h3c2-1 2-1 2-3l-1-1 1-2c-1-1-1-2-3-1h-2v7Zm1-1v-2l2-1 1 2-1 1h-2Zm0-3v-3h1l2 1-2 2h-1Z" fill="#fff"/><path d="M165 242h1l1-6 3 5 2-7h-1l-1 6-2-6h-1l-1 7-3-6 2 7Z" fill="#fff"/><path d="m173 241 5-1h-4v-2l3-1v-1l-3 1v-3h3v-1l-4 1v7Z" fill="#fff"/><path d="M179 240h3c2 0 2-1 2-2l-1-2h-1c1 0 2-1 1-2 0-1 0-2-2-1h-2v7Zm1-1v-2h2c1-1 1 0 1 1l-1 1h-2Zm0-3-1-2 2-1 2 1-2 2h-1Z" fill="#fff"/><path d="M174 232h1l1-6 3 5 1-7-1 6-2-6-1 1-1 6-3-6 2 7Z" fill="#fff"/><path d="m182 231 5-1h-4v-2l3-1v-1l-3 1v-3h3v-1l-4 1v7Z" fill="#fff"/><path d="M188 230h3c2 0 2-1 2-2l-2-2c1 0 2-1 1-2l-2-1h-3l1 7Zm1-1v-2h2c1-1 1 0 1 1l-1 1h-2Zm0-3-1-2 2-1 2 1-2 2h-1Z" fill="#fff"/><path d="M179 222h1l1-6 3 5 1-7-1 6-3-6v1l-1 6-3-6 2 7Z" fill="#fff"/><path d="m187 221 5-1h-4v-2l3-1v-1l-3 1v-3h3v-1l-4 1v7Z" fill="#fff"/><path d="M193 220h3c2 0 2-1 2-2l-2-2c1 0 2-1 1-2l-2-1h-3l1 7Zm1-1v-2h2l1 1-1 1h-2Zm0-3-1-2h4l-2 2h-1Z" fill="#fff"/><path d="M195 190h1l1-6 2 6 1-1 1-7-1 6-3-6-1 1v6l-3-6h-1l3 7Z" fill="#fff"/><path d="M203 189h5v-1h-4v-2l3-1h-3l-1-2 4-1v-1l-4 1v7Z" fill="#fff"/><path d="M209 188h3c2 0 2-1 2-2l-2-2c1 0 2-1 1-2l-2-1h-3l1 7Zm1-1v-2h2l1 1-1 1h-2Zm0-3-1-2h2c1-1 1 0 2 1l-2 1h-1Z" fill="#fff"/><path d="M193 199h1l1-6 2 6 1-1 1-7-1 6-3-6-1 1v6l-3-6h-1l3 7Z" fill="#fff"/><path d="m201 198 5-1h-4v-2l3-1h-3l-1-2 4-1v-1l-4 1v7Z" fill="#fff"/><path d="M207 197h3c2 0 2-1 2-2l-2-2c1 0 2-1 1-2l-2-1h-3l1 7Zm1-1v-2h2l1 1-1 1h-2Zm0-3-1-2h2c1-1 1 0 2 1l-2 1h-1Z" fill="#fff"/><path d="m193 262 1-1 1-5 2 5h1l1-7-1 6-3-6h-1v6l-3-5h-1l3 7Z" fill="#fff"/><path d="m201 261 5-1v-1l-4 1v-3h3v-1h-3l-1-2h4v-1h-4v8Z" fill="#fff"/><path d="M207 260h3c2-1 2-2 2-3l-2-1c1-1 2-1 1-2l-2-2-3 1 1 7Zm1-1v-3h2l1 1-1 2h-2Zm0-3-1-3h2l2 1-2 1-1 1Z" fill="#fff"/><path d="M92 291h1v-6l3 6h1l1-8-1 1-1 6-2-6h-1l-1 6-2-6-1 1 3 6Z" fill="#fff"/><path d="M100 290h4v-1l-4 1v-3h3v-1h-3v-2h3v-1h-4l1 7Z" fill="#fff"/><path d="m106 290 2-1c2 0 3-1 2-2l-1-1 1-2c0-1-1-2-3-2l-2 1 1 7Zm0-1v-3h2l2 1-2 2h-2Zm0-3v-3h1l2 1-1 1-2 1Z" fill="#fff"/><path d="M77 285h1v-6l3 6h1l1-8-1 1-1 6-2-6h-1l-1 6-2-6-1 1 3 6Z" fill="#fff"/><path d="M85 284h4v-1l-3 1-1-3h3v-1h-3v-2h3v-1h-4l1 7Z" fill="#fff"/><path d="m91 284 2-1c2 0 3-1 2-2l-1-1 1-2c0-1-1-2-3-2l-2 1 1 7Zm0-1v-3h2l2 1-2 2h-2Zm0-3v-3h1l2 1-1 1-2 1Z" fill="#fff"/><path d="M212 214h1l1-6 2 5h1l1-7-1 6-3-6-1 1v6l-3-6h-1l3 7Z" fill="#fff"/><path d="m220 213 5-1h-4v-2l3-1v-1l-3 1-1-3h4v-1l-5 1 1 7Z" fill="#fff"/><path d="M226 212h3c2 0 2-1 2-2l-2-2 1-2-2-1h-3l1 7Zm1-1v-2h2l1 1-1 1h-2Zm0-3-1-2h4l-2 2h-1Z" fill="#fff"/><path d="M201 206h1l1-6 2 6 1-1 1-7-1 6-3-6-1 1v6l-3-6h-1l3 7Z" fill="#fff"/><path d="m209 205 5-1h-4v-2l3-1h-3l-1-3h4v-1l-4 1v7Z" fill="#fff"/><path d="M215 204h3c2 0 2-1 2-2l-2-2 1-2-2-1h-3l1 7Zm1-1v-2h2l1 1-1 1h-2Zm0-3-1-2h2c1-1 1 0 2 1l-2 1h-1Z" fill="#fff"/><path d="M186 248h1l1-6 2 5h1l1-7-1 6-3-6h-1v7l-3-6h-1l3 7Z" fill="#fff"/><path d="m194 247 5-1h-4v-2l3-1v-1l-3 1v-3h3v-1l-4 1v7Z" fill="#fff"/><path d="M200 246h3c2 0 2-1 2-2l-2-2c1 0 2-1 1-2 0-1-1-2-2-1h-3l1 7Zm1-1v-2h2c1-1 1 0 1 1l-1 1h-2Zm0-3-1-2 2-1 2 1-2 2h-1Z" fill="#fff"/><path d="M225 246h1l1-6 2 5h1l1-7h-1v6l-3-6h-1v7h-1l-2-6h-1l3 7Z" fill="#fff"/><path d="m233 245 5-1h-4v-2l3-1v-1l-3 1-1-3h4v-1l-5 1 1 7Z" fill="#fff"/><path d="M239 244h3c2 0 2-1 2-2l-2-2 1-2c0-1-1-2-2-1h-3l1 7Zm1-1v-2h1c1-1 2 0 2 1l-1 1h-2Zm0-3-1-2 2-1 1 1c1 1 0 2-1 2h-1Z" fill="#fff"/><path d="M229 221h1l1-6 2 5h1l1-7h-1v6l-3-6-1 1v6h-1l-2-6h-1l3 7Z" fill="#fff"/><path d="m237 220 5-1h-4v-2l3-1v-1l-3 1-1-3h4v-1l-5 1 1 7Z" fill="#fff"/><path d="M243 219h3c2 0 2-1 2-2l-2-2 1-2-2-1h-3l1 7Zm1-1v-2h1l2 1-1 1h-2Zm0-3-1-2h3c1 1 0 2-1 2h-1Z" fill="#fff"/><path d="M218 213h1l1-6 2 5h1l1-7h-1v6l-3-6-1 1v6l-3-6h-1l3 7Z" fill="#fff"/><path d="m226 212 5-1h-4v-2l3-1v-1l-3 1-1-3h4v-1l-5 1 1 7Z" fill="#fff"/><path d="M232 211h3c2 0 2-1 2-2l-2-2 1-2-2-1h-3l1 7Zm1-1v-2h2l1 1-1 1h-2Zm0-3-1-2h2c1-1 1 0 2 1l-2 1h-1Z" fill="#fff"/><path d="M203 255h1l1-6 2 5h1l1-7-1 6-3-6h-1v7l-3-6h-1l3 7Z" fill="#fff"/><path d="m211 254 5-1h-4v-2l3-1v-1l-3 1-1-3h4v-1l-5 1 1 7Z" fill="#fff"/><path d="M217 253h3c2 0 2-1 2-2 0-2-1-2-2-2l1-2c0-1-1-2-2-1h-3l1 7Zm1-1v-2h2l1 1-1 1h-2Zm0-3-1-2 2-1 2 1-2 2h-1Z" fill="#fff"/><path d="M242 253h1l1-6 2 5h1l1-7h-1v6l-3-6h-1v6l-1 1-2-6h-1l3 7Z" fill="#fff"/><path d="m250 252 5-1h-4v-2l3-1v-1l-3 1-1-3h4v-1l-5 1 1 7Z" fill="#fff"/><path d="M256 251h3l2-2c0-2-1-2-2-2l1-2c0-1-1-2-2-1h-3l1 7Zm1-1v-2h1c1-1 2 0 2 1l-1 1h-2Zm0-3-1-2 2-1 1 1c1 1 0 2-1 2h-1Z" fill="#fff"/><path d="M223 202h1l1-6 2 6 1-1 1-7h-1v6l-3-6-1 1v6l-3-6h-1l3 7Z" fill="#fff"/><path d="m231 201 5-1h-4v-2l3-1h-3l-1-2 4-1v-1l-5 1 1 7Z" fill="#fff"/><path d="M237 200h3c2 0 2-1 2-2l-2-2 1-2-2-1h-3l1 7Zm1-1v-2h1l2 1-1 1h-2Zm0-3-1-2h2c1-1 1 0 1 1l-1 1h-1Z" fill="#fff"/><path d="M212 194h1l1-6 2 6 1-1 1-7-1 6-3-6-1 1v6l-3-6h-1l3 7Z" fill="#fff"/><path d="M220 193h5v-1h-4v-2l3-1h-3l-1-2 4-1v-1l-5 1 1 7Z" fill="#fff"/><path d="M226 192h3c2 0 2-1 2-2l-2-2 1-2-2-1h-3l1 7Zm1-1v-2h2l1 1-1 1h-2Zm0-3-1-2h2c1-1 1 0 2 1l-2 1h-1Z" fill="#fff"/><path d="M212 185h1l1-6 2 6 1-1 1-7-1 6-3-5h-1v6l-3-6h-1l3 7Z" fill="#fff"/><path d="M220 184h5v-1h-4v-2l3-1h-3l-1-2 4-1v-1l-5 1 1 7Z" fill="#fff"/><path d="M226 183h3c2 0 2-1 2-2l-2-2 1-2-2-1h-3l1 7Zm1-1v-2h2l1 1-1 1h-2Zm0-3-1-2h2c1-1 1 0 2 1l-2 1h-1Z" fill="#fff"/><path d="M196 185h1l1-6 2 6 1-1 1-7-1 6-3-5h-1v6l-3-6h-1l3 7Z" fill="#fff"/><path d="M204 184h5v-1h-4v-2l3-1h-3l-1-2 4-1v-1l-4 1v7Z" fill="#fff"/><path d="M210 183h3c2 0 2-1 2-2l-2-2c1 0 2-1 1-2l-2-1h-3l1 7Zm1-1v-2h2l1 1-1 1h-2Zm0-3-1-2h2c1-1 1 0 2 1l-2 1h-1Z" fill="#fff"/><path d="M202 172h1l1-6 2 6 1-1 1-7-1 6-3-5h-1v6l-3-6h-1l3 7Z" fill="#fff"/><path d="M210 171h5v-1h-4v-2l3-1h-3l-1-2 4-1v-1l-4 1v7Z" fill="#fff"/><path d="M216 170h3c2 0 2-1 2-2l-2-2 1-1c0-2-1-2-2-2h-3l1 7Zm1-1v-2h2l1 1-1 1h-2Zm0-3-1-2h2l2 1-2 1h-1Z" fill="#fff"/><path d="M190 176h1l1-6 2 6 1-1 1-7-1 6-3-5h-1v6l-3-6h-1l3 7Z" fill="#fff"/><path d="M198 175h5v-1h-4v-2l3-1h-3v-2l3-1v-1l-4 1v7Z" fill="#fff"/><path d="M204 174h3c2 0 2-1 2-2l-2-2c1 0 2-1 1-2l-2-1h-3l1 7Zm1-1v-2h2l1 1-1 1h-2Zm0-3-1-2h2l2 1-2 1h-1Z" fill="#fff"/><path d="M94 280h1v-6l3 5h1l1-7h-1l-1 6-2-6h-1l-1 6-2-5h-1l3 7Z" fill="#fff"/><path d="m102 279 4-1h-4v-3h3v-1l-3 1v-3h3v-1l-4 1 1 7Z" fill="#fff"/><path d="M108 278h2c2 0 3-1 2-2l-1-2 1-2c0-1-1-2-3-1h-2l1 7Zm0-1v-2l2-1 2 2-2 1h-2Zm0-3v-2l1-1 2 1-1 2h-2Z" fill="#fff"/><path d="M87 263h1v-6l3 5h1l1-7h-1l-1 6-2-6h-1l-1 6-2-5h-1l3 7Z" fill="#fff"/><path d="m95 262 4-1h-4v-2l3-1v-1l-3 1v-3h3v-1l-4 1 1 7Z" fill="#fff"/><path d="M101 261h2c2 0 3-1 2-2l-1-2 1-2c0-1-1-2-3-1h-2l1 7Zm0-1v-2h2c1-1 1 0 2 1l-2 1h-2Zm0-3v-2l1-1 2 1-1 2h-2Z" fill="#fff"/><path d="m104 244 1-6 3 5h1l1-7h-1l-1 6-2-6h-1l-1 7-2-6h-1l3 7Z" fill="#fff"/><path d="m112 243 4-1h-4v-2l3-1v-1l-3 1v-3h3v-1l-4 1 1 7Z" fill="#fff"/><path d="M118 242h2c2 0 2-1 2-2l-1-2 1-2c0-1-1-2-3-1h-2l1 7Zm0-1v-2h2c1-1 1 0 2 1l-2 1h-2Zm0-3v-2l1-1 2 1-1 2h-2Z" fill="#fff"/><path d="M56 199h1v-6h1l2 6 1-1 1-7h-1l-1 6-2-6-1 1-1 6-2-6h-1l3 7Z" fill="#fff"/><path d="m64 198 4-1h-3l-1-2 4-1h-4v-2l3-1v-1l-4 1 1 7Z" fill="#fff"/><path d="M70 197h2c2 0 3-1 2-2l-1-2 1-2-3-1h-2l1 7Zm0-1v-2h2l2 1-2 1h-2Zm0-3v-2h1c1-1 2 0 2 1l-1 1h-2Z" fill="#fff"/><path d="M183 168h1l1-6 2 6 1-1 1-7-1 6-3-5h-1v6l-3-6 2 7Z" fill="#fff"/><path d="M191 167h5v-1h-4v-2l3-1h-3v-2l3-1v-1l-4 1v7Z" fill="#fff"/><path d="M197 166h3c2 0 2-1 2-2l-2-2 1-1c0-2-1-2-2-2h-3l1 7Zm1 0v-3h2l1 1-1 1-2 1Zm0-4-1-2h2l2 1-2 1h-1Z" fill="#fff"/><path d="M165 159h1l1-6 3 6 2-8h-1l-1 6-2-5h-1l-1 6-3-6 2 7Z" fill="#fff"/><path d="M173 158h5v-1h-4v-2l3-1h-3v-2l3-1v-1l-4 1v7Z" fill="#fff"/><path d="M179 157h3c2 0 2-1 2-2l-1-2h-1l1-1c0-2 0-2-2-2h-2v7Zm1 0v-3h2l1 1-1 1-2 1Zm0-4-1-2h2l2 1-2 1h-1Z" fill="#fff"/><path d="M60 262h1v-6h1l2 5h1l1-7h-1l-1 6-2-6h-1l-1 6-2-5h-1l3 7Z" fill="#fff"/><path d="m68 261 4-1h-3l-1-2 4-1-1-1-3 1v-3h3v-1l-4 1 1 7Z" fill="#fff"/><path d="M74 260h2c2 0 3-1 2-2l-1-2 1-2c0-1-1-2-3-1h-2l1 7Zm0-1v-2h2c1-1 2 0 2 1l-2 1h-2Zm0-3v-2l1-1 2 1-1 2h-2Z" fill="#fff"/><path d="M62 246h1v-6h1l2 5h1l1-7h-1l-1 6-2-6h-1l-1 7-2-6h-1l3 7Z" fill="#fff"/><path d="m70 245 4-1h-3l-1-2 4-1-1-1-3 1v-3h3v-1l-4 1 1 7Z" fill="#fff"/><path d="M76 244h2c2 0 3-1 2-2l-1-2 1-2c0-1-1-2-3-1h-2l1 7Zm0-1v-2h2c1-1 2 0 2 1l-2 1h-2Zm0-3v-2l1-1 2 1-1 2h-2Z" fill="#fff"/><path d="M79 227h1v-6l3 5h1l1-7h-1l-1 6-2-6-1 1-1 6-2-6h-1l3 7Z" fill="#fff"/><path d="m87 226 4-1h-3l-1-2 3-1v-1l-3 1v-3h3v-1l-4 1 1 7Z" fill="#fff"/><path d="M93 225h2c2 0 3-1 2-2l-1-2 1-2-3-1h-2l1 7Zm0-1v-2h2l2 1-2 1h-2Zm0-3v-2l1-1 2 1-1 2h-2Z" fill="#fff"/><path d="M31 182h1l1-6 2 6 1-1 1-7h-1l-1 6-2-5h-1l-1 6-2-6h-1l3 7Z" fill="#fff"/><path d="M39 181h4v-1h-3l-1-2 4-1h-4v-2l3-1v-1l-4 1 1 7Z" fill="#fff"/><path d="M45 180h2c2 0 3-1 3-2l-2-2 1-2-3-1h-2l1 7Zm1-1-1-2h2l2 1-2 1h-1Zm-1-3v-2h2l1 1-1 1h-2Z" fill="#fff"/><path d="M169 166h1l1-6 3 6 2-8h-1l-1 6-2-5h-1l-1 6-3-6 2 7Z" fill="#fff"/><path d="M177 165h5v-1h-4v-2l3-1h-3v-2l3-1v-1l-4 1v7Z" fill="#fff"/><path d="M183 164h3c2 0 2-1 2-2l-2-2 1-1c0-2 0-2-2-2h-2v7Zm1 0v-3h2l1 1-1 1-2 1Zm0-4-1-2h2l2 1-2 1h-1Z" fill="#fff"/><path d="M147 159h1l1-6 3 6 2-8h-1l-1 6-2-5h-1l-1 6-3-6 2 7Z" fill="#fff"/><path d="M156 158h4v-1h-4v-2l3-1h-3v-2l3-1v-1l-4 1 1 7Z" fill="#fff"/><path d="M161 157h3c2 0 2-1 2-2l-1-2 1-1c-1-2-1-2-3-2h-2v7Zm1 0v-3h2l1 1-1 1-2 1Zm0-4v-2h1l2 1-2 1h-1Z" fill="#fff"/><path d="M197 236h1l1-6 2 5h1l1-7-1 6-3-6h-1v7l-3-6h-1l3 7Z" fill="#fff"/><path d="m205 235 5-1h-4v-2l3-1v-1l-3 1-1-3h4v-1l-4 1v7Z" fill="#fff"/><path d="M211 234h3c2 0 2-1 2-2l-2-2c1 0 2-1 1-2l-2-1h-3l1 7Zm1-1v-2h2c1-1 1 0 1 1l-1 1h-2Zm0-3-1-2 2-1 2 1-2 2h-1Z" fill="#fff"/><path d="M96 266h1v-6l3 5h1l1-7h-1l-1 6-2-6h-1l-1 6-2-5h-1l3 7Z" fill="#fff"/><path d="m104 265 4-1h-4v-2l3-1v-1l-3 1v-3h3v-1l-4 1 1 7Z" fill="#fff"/><path d="M110 264h2c2 0 3-1 2-2l-1-2 1-2c0-1-1-2-3-1h-2l1 7Zm0-1v-2h2c1-1 1 0 2 1l-2 1h-2Zm0-3v-2l1-1 2 1-1 2h-2Z" fill="#fff"/><path d="M81 260h1v-6l3 5h1l1-7h-1l-1 6-2-6h-1l-1 6-2-5h-1l3 7Z" fill="#fff"/><path d="m89 259 4-1h-3l-1-2 3-1v-1l-3 1v-3h3v-1l-4 1 1 7Z" fill="#fff"/><path d="M95 258h2c2 0 3-1 2-2l-1-2 1-2c0-1-1-2-3-1h-2l1 7Zm0-1v-2h2c1-1 1 0 2 1l-2 1h-2Zm0-3v-2l1-1 2 1-1 2h-2Z" fill="#fff"/><path d="M236 234h1l1-6 2 5h1l1-7h-1v6l-3-6-1 1v6h-1l-2-6h-1l3 7Z" fill="#fff"/><path d="m244 233 5-1h-4v-2l3-1v-1l-3 1-1-3h4v-1l-5 1 1 7Z" fill="#fff"/><path d="M250 232h3c2 0 2-1 2-2l-2-2 1-2-2-1h-3l1 7Zm1-1v-2h1c1-1 2 0 2 1l-1 1h-2Zm0-3-1-2 2-1 1 1c1 1 0 2-1 2h-1Z" fill="#fff"/><path d="M211 207h1l1-6 2 6 1-1 1-7-1 6-3-6-1 1v6l-3-6h-1l3 7Z" fill="#fff"/><path d="m219 206 5-1h-4v-2l3-1h-3l-1-3h4v-1l-5 1 1 7Z" fill="#fff"/><path d="M225 205h3c2 0 2-1 2-2l-2-2 1-2-2-1h-3l1 7Zm1-1v-2h2l1 1-1 1h-2Zm0-3-1-2h2c1-1 1 0 2 1l-2 1h-1Z" fill="#fff"/><path d="M200 216h1l1-6 2 5h1l1-7-1 6-3-6-1 1v6l-3-6h-1l3 7Z" fill="#fff"/><path d="m208 215 5-1h-4v-2l3-1v-1l-3 1-1-3h4v-1l-4 1v7Z" fill="#fff"/><path d="M214 214h3c2 0 2-1 2-2l-2-2 1-2-2-1h-3l1 7Zm1-1v-2h2l1 1-1 1h-2Zm0-3-1-2h4l-2 2h-1Z" fill="#fff"/><path d="m99 246 1-6 3 5h1l1-7h-1l-1 6-2-6h-1l-1 7-2-6h-1l3 7Z" fill="#fff"/><path d="m107 245 4-1h-4v-2l3-1v-1l-3 1v-3h3v-1l-4 1 1 7Z" fill="#fff"/><path d="M113 244h2c2 0 2-1 2-2l-1-2 1-2c0-1-1-2-3-1h-2l1 7Zm0-1v-2h2c1-1 1 0 2 1l-2 1h-2Zm0-3v-2l1-1 2 1-1 2h-2Z" fill="#fff"/><path d="M81 224h1v-6l3 5h1l1-7h-1l-1 6-2-6-1 1-1 6-2-6h-1l3 7Z" fill="#fff"/><path d="m89 223 4-1h-3l-1-2 3-1v-1l-3 1v-3h3v-1l-4 1 1 7Z" fill="#fff"/><path d="M95 222h2c2 0 3-1 2-2l-1-2 1-2-3-1h-2l1 7Zm0-1v-2h2l2 1-2 1h-2Zm0-3v-2h3l-1 2h-2Z" fill="#fff"/><path d="M93 235h1v-6l3 5h1l1-7h-1l-1 6-2-6-1 1-1 6-2-6h-1l3 7Z" fill="#fff"/><path d="m101 234 4-1h-4v-2l3-1v-1l-3 1v-3h3v-1l-4 1 1 7Z" fill="#fff"/><path d="M107 233h2c2 0 3-1 2-2l-1-2 1-2-3-1h-2l1 7Zm0-1v-2h2c1-1 1 0 2 1l-2 1h-2Zm0-3v-2l1-1 2 1-1 2h-2Z" fill="#fff"/><path d="M71 257h1v-6h1l2 5h1l1-7h-1l-1 6-2-6h-1l-1 6-2-5h-1l3 7Z" fill="#fff"/><path d="m79 256 4-1h-3l-1-2 3-1v-1l-3 1v-3h3v-1l-4 1 1 7Z" fill="#fff"/><path d="M85 255h2c2 0 3-1 2-2l-1-2 1-2c0-1-1-2-3-1h-2l1 7Zm0-1v-2h2c1-1 2 0 2 1l-2 1h-2Zm0-3v-2l1-1 2 1-1 2h-2Z" fill="#fff"/><path d="M54 231h1v-6h1l2 5h1l1-7h-1l-1 6-2-6-1 1-1 6-2-6h-1l3 7Z" fill="#fff"/><path d="m62 230 4-1h-3l-1-2 4-1-1-1-3 1v-3h3v-1l-4 1 1 7Z" fill="#fff"/><path d="M68 229h2c2 0 3-1 2-2l-1-2 1-2-3-1h-2l1 7Zm0-1v-2h2l2 1-2 1h-2Zm0-3v-2l1-1 2 1-1 2h-2Z" fill="#fff"/><path d="m102 253 1-6 3 5h1l1-7h-1l-1 6-2-6h-1l-1 6v1l-2-6h-1l3 7Z" fill="#fff"/><path d="m110 252 4-1h-4v-2l3-1v-1l-3 1v-3h3v-1l-4 1 1 7Z" fill="#fff"/><path d="M116 251h2c2 0 2-1 2-2l-1-2 1-2c0-1-1-2-3-1h-2l1 7Zm0-1v-2h2c1-1 1 0 2 1l-2 1h-2Zm0-3v-2l1-1 2 1-1 2h-2Z" fill="#fff"/><path d="M72 214h1v-6h1l2 5h1l1-7h-1l-1 6-2-6-1 1-1 6-2-6h-1l3 7Z" fill="#fff"/><path d="m80 213 4-1h-3l-1-2 3-1v-1l-3 1v-3h3v-1l-4 1 1 7Z" fill="#fff"/><path d="M86 212h2c2 0 3-1 2-2l-1-2 1-2-3-1h-2l1 7Zm0-1v-2h2l2 1-2 1h-2Zm0-3v-2h3l-1 2h-2Z" fill="#fff"/><path d="M44 214h1l1-6 2 5h1l1-7h-1l-1 6-2-6-1 1-1 6-2-6h-1l3 7Z" fill="#fff"/><path d="m52 213 4-1h-3l-1-2 4-1-1-1-3 1v-3h3v-1l-4 1 1 7Z" fill="#fff"/><path d="M58 212h2c2 0 3-1 3-2l-2-2 1-2-3-1h-2l1 7Zm1-1-1-2h2l2 1-2 1h-1Zm-1-3v-2h3l-1 2h-2Z" fill="#fff"/><path d="M22 214h1l1-6 2 5h1l1-7h-1l-1 6-2-6-1 1-1 6-2-6h-1l3 7Z" fill="#fff"/><path d="m30 213 4-1h-3l-1-2 4-1v-1l-4 1v-3h3v-1l-4 1 1 7Z" fill="#fff"/><path d="M36 212h2c2 0 3-1 3-2l-2-2 1-2-3-1h-2l1 7Zm1-1-1-2h2l2 1-2 1h-1Zm-1-3v-2h3l-1 2h-2Z" fill="#fff"/><path d="M21 203h1l1-6 2 6 1-1 1-7h-1l-1 6-2-6-1 1-1 6-2-6h-1l3 7Z" fill="#fff"/><path d="m29 202 4-1h-3l-1-2 4-1h-4v-3h3v-1l-4 1 1 7Z" fill="#fff"/><path d="M35 201h2c2 0 3-1 3-2l-2-2 1-2-3-1h-2l1 7Zm1-1-1-2h2l2 1-2 1h-1Zm-1-3v-2h2l1 1-1 1h-2Z" fill="#fff"/><path d="M5 197h1l1-6 2 6 1-1 1-7h-1l-1 6-2-6-1 1-1 6-2-6H2l3 7Z" fill="#fff"/><path d="m13 196 4-1h-3l-1-2 4-1h-4v-2l3-1v-1l-4 1 1 7Z" fill="#fff"/><path d="M19 195h2c2 0 3-1 3-2l-2-2 1-2-3-1h-2l1 7Zm1-1-1-2h2l2 1-2 1h-1Zm-1-3v-2h2c1-1 1 0 1 1l-1 1h-2Z" fill="#fff"/><path d="M16 216h1l1-6 2 5h1l1-7h-1l-1 6-2-6-1 1-1 6-2-6h-1l3 7Z" fill="#fff"/><path d="m24 215 4-1h-3l-1-2 4-1v-1l-4 1v-3h3v-1l-4 1 1 7Z" fill="#fff"/><path d="M30 214h2c2 0 3-1 3-2l-2-2 1-2-3-1h-2l1 7Zm1-1-1-2h2l2 1-2 1h-1Zm-1-3v-2h3l-1 2h-2Z" fill="#fff"/><path d="M13 207h1l1-6 2 6 1-1 1-7h-1l-1 6-2-6-1 1-1 6-2-6h-1l3 7Z" fill="#fff"/><path d="m21 206 4-1h-3l-1-2 4-1h-4v-3h3v-1l-4 1 1 7Z" fill="#fff"/><path d="M27 205h2c2 0 3-1 3-2l-2-2 1-2-3-1h-2l1 7Zm1-1-1-2h2l2 1-2 1h-1Zm-1-3v-2h2c1-1 1 0 1 1l-1 1h-2Z" fill="#fff"/><path d="M18 228h1l1-6 2 5h1l1-7h-1l-1 6-2-6-1 1-1 6-2-6h-1l3 7Z" fill="#fff"/><path d="m26 227 4-1h-3l-1-2 4-1v-1l-4 1v-3h3v-1l-4 1 1 7Z" fill="#fff"/><path d="M32 226h2c2 0 3-1 3-2l-2-2 1-2-3-1h-2l1 7Zm1-1-1-2h2l2 1-2 1h-1Zm-1-3v-2l2-1 1 1-1 2h-2Z" fill="#fff"/><path d="M46 192h1l1-6 2 6 1-1 1-7h-1l-1 6-2-6-1 1-1 6-2-6h-1l3 7Z" fill="#fff"/><path d="M54 191h4v-1h-3l-1-2 4-1h-4v-2l3-1v-1l-4 1 1 7Z" fill="#fff"/><path d="M60 190h2c2 0 3-1 3-2l-2-2 1-2-3-1h-2l1 7Zm1-1-1-2h2l2 1-2 1h-1Zm-1-3v-2h1c1-1 2 0 2 1l-1 1h-2Z" fill="#fff"/><path d="M46 180h1l1-6 2 6 1-1 1-7h-1l-1 6-2-5h-1l-1 6-2-6h-1l3 7Z" fill="#fff"/><path d="M54 179h4v-1h-3l-1-2 4-1h-4v-2l3-1v-1l-4 1 1 7Z" fill="#fff"/><path d="M60 178h2c2 0 3-1 3-2l-2-2 1-2-3-1h-2l1 7Zm1-1-1-2h2l2 1-2 1h-1Zm-1-3v-2h1l2 1-1 1h-2Z" fill="#fff"/><path d="M226 232h1l1-6 2 5h1l1-7h-1l-1 6-2-6-1 1-1 6-2-6h-1l3 7Z" fill="#fff"/><path d="m234 231 4-1h-3l-1-2 4-1v-1l-4 1v-3h4l-1-1-4 1 1 7Z" fill="#fff"/><path d="M240 230h2c2 0 3-1 3-2l-2-2 1-2-2-1h-3l1 7Zm1-1-1-2h2c1-1 2 0 2 1l-2 1h-1Zm-1-3v-2l2-1 1 1-1 2h-2Z" fill="#fff"/><path d="M245 243h1l1-6 2 5h1l1-7h-1v6l-3-6h-1v7h-1l-2-6h-1l3 7Z" fill="#fff"/><path d="m253 242 5-1h-4v-2l3-1v-1l-3 1-1-3h4v-1l-5 1 1 7Z" fill="#fff"/><path d="M259 241h3l2-2-2-2 1-2c0-1-1-2-2-1h-3l1 7Zm1-1v-2h1c1-1 2 0 2 1l-1 1h-2Zm0-3-1-2 2-1 1 1c1 1 0 2-1 2h-1Z" fill="#fff"/><path d="M255 232h1l1-6 2 5h1l1-7h-1v6l-3-6-1 1-1 6-2-6h-1l3 7Z" fill="#fff"/><path d="m263 231 5-1h-4v-2l3-1v-1l-3 1-1-3h4v-1l-5 1 1 7Z" fill="#fff"/><path d="M269 230h3l2-2-2-2 1-2-2-1h-3l1 7Zm1-1v-2h1c1-1 2 0 2 1l-1 1h-2Zm0-3-1-2 2-1 1 1-1 2h-1Z" fill="#fff"/><path d="M243 227h1l1-6 2 5h1l1-7h-1v6l-3-6-1 1v6h-1l-2-6h-1l3 7Z" fill="#fff"/><path d="m251 226 5-1h-4v-2l3-1v-1l-3 1-1-3h4v-1l-5 1 1 7Z" fill="#fff"/><path d="M257 225h3l2-2-2-2 1-2-2-1h-3l1 7Zm1-1v-2h1l2 1-1 1h-2Zm0-3-1-2 2-1 1 1c1 1 0 2-1 2h-1Z" fill="#fff"/><path d="M244 215h1l1-6 2 5h1l1-7h-1v6l-3-6-1 1v6h-1l-2-6h-1l3 7Z" fill="#fff"/><path d="m252 214 5-1h-4v-2l3-1v-1l-3 1-1-3h4v-1l-5 1 1 7Z" fill="#fff"/><path d="M258 213h3l2-2-2-2 1-2-2-1h-3l1 7Zm1-1v-2h1l2 1-1 1h-2Zm0-3-1-2h3c1 1 0 2-1 2h-1Z" fill="#fff"/><path d="M235 211h1l1-6 2 5h1l1-7h-1v6l-3-6-1 1v6h-1l-2-6h-1l3 7Z" fill="#fff"/><path d="m243 210 5-1h-4v-2l3-1h-3l-1-3h4v-1l-5 1 1 7Z" fill="#fff"/><path d="M249 209h3c2 0 2-1 2-2l-2-2 1-2-2-1h-3l1 7Zm1-1v-2h1l2 1-1 1h-2Zm0-3-1-2h2c1-1 1 0 1 1l-1 1h-1Z" fill="#fff"/><path d="M235 199h1l1-6 2 6 1-1 1-7h-1v6l-3-6-1 1v6h-1l-2-6h-1l3 7Z" fill="#fff"/><path d="m243 198 5-1h-4v-2l3-1h-3l-1-2 4-1v-1l-5 1 1 7Z" fill="#fff"/><path d="M249 197h3c2 0 2-1 2-2l-2-2 1-2-2-1h-3l1 7Zm1-1v-2h1l2 1-1 1h-2Zm0-3-1-2h2c1-1 1 0 1 1l-1 1h-1Z" fill="#fff"/><path d="M231 193h1l1-6 2 6 1-1 1-7h-1v6l-3-6-1 1v6h-1l-2-6h-1l3 7Z" fill="#fff"/><path d="M239 192h5v-1h-4v-2l3-1h-3l-1-2 4-1v-1l-5 1 1 7Z" fill="#fff"/><path d="M245 191h3c2 0 2-1 2-2l-2-2 1-2-2-1h-3l1 7Zm1-1v-2h1l2 1-1 1h-2Zm0-3-1-2h2c1-1 1 0 1 1l-1 1h-1Z" fill="#fff"/><path d="M228 186h1l1-6 2 6 1-1 1-7h-1v6l-3-5h-1v6h-1l-2-6h-1l3 7Z" fill="#fff"/><path d="M236 185h5v-1h-4v-2l3-1h-3l-1-2 4-1v-1l-5 1 1 7Z" fill="#fff"/><path d="M242 184h3c2 0 2-1 2-2l-2-2 1-2-2-1h-3l1 7Zm1-1v-2h1l2 1-1 1h-2Zm0-3-1-2h2c1-1 1 0 1 1l-1 1h-1Z" fill="#fff"/><path d="M223 178h1l1-6 2 6 1-1 1-7h-1v6l-3-5h-1v6l-3-6h-1l3 7Z" fill="#fff"/><path d="M231 177h5v-1h-4v-2l3-1h-3l-1-2 4-1v-1l-5 1 1 7Z" fill="#fff"/><path d="M237 176h3c2 0 2-1 2-2l-2-2 1-2-2-1h-3l1 7Zm1-1v-2h1l2 1-1 1h-2Zm0-3-1-2h2l1 1-1 1h-1Z" fill="#fff"/><path d="M215 169h1l1-6 2 6 1-1 1-7h-1v6l-3-5h-1v6l-3-6h-1l3 7Z" fill="#fff"/><path d="M223 168h5v-1h-4v-2l3-1h-3l-1-2 4-1v-1l-5 1 1 7Z" fill="#fff"/><path d="M229 167h3c2 0 2-1 2-2l-2-2 1-1c0-2-1-2-2-2h-3l1 7Zm1 0v-3h2l1 1-1 1-2 1Zm0-4-1-2h2l2 1-2 1h-1Z" fill="#fff"/><path d="M265 224h1l1-6 2 5h1l1-7h-1v6l-3-6-1 1-1 6-2-6h-1l3 7Z" fill="#fff"/><path d="m273 223 5-1h-4v-2l3-1v-1l-3 1-1-3h4v-1l-5 1 1 7Z" fill="#fff"/><path d="M279 222h3l2-2-2-2 1-2-2-1h-3l1 7Zm1-1v-2h1l2 1-1 1h-2Zm0-3-1-2h3l-1 2h-1Z" fill="#fff"/><path d="M272 208h1l1-6 2 6 1-1 1-7h-1v6h-1l-2-6-1 1-1 6-2-6h-1l3 7Z" fill="#fff"/><path d="m280 207 5-1h-4v-2l3-1h-3l-1-3h4v-1l-5 1 1 7Z" fill="#fff"/><path d="M286 206h3l2-2-2-2 1-2-2-1h-3l1 7Zm1-1v-2h1l2 1-1 1h-2Zm-1-3v-2h2c1-1 1 0 1 1l-1 1h-2Z" fill="#fff"/><path d="M255 242h1l1-6 2 5h1l1-7h-1v6l-3-6h-1l-1 7-2-6h-1l3 7Z" fill="#fff"/><path d="m263 241 5-1h-4v-2l3-1v-1l-3 1-1-3h4v-1l-5 1 1 7Z" fill="#fff"/><path d="M269 240h3l2-2-2-2 1-2c0-1-1-2-2-1h-3l1 7Zm1-1v-2h1c1-1 2 0 2 1l-1 1h-2Zm0-3-1-2 2-1 1 1-1 2h-1Z" fill="#fff"/><path d="M288 144h1l1-6 2 6h1l1-8h-1v6h-1l-2-5h-1l-1 6-2-6h-1l3 7Z" fill="#fff"/><path d="M296 143h5l-1-1h-3v-2l3-1h-3l-1-2 4-1v-1l-5 1 1 7Z" fill="#fff"/><path d="M302 142h3l2-2-2-2 1-1-2-2h-3l1 7Zm1 0v-3h1l2 1-1 1-2 1Zm-1-4v-2h2l1 1-1 1h-2Z" fill="#fff"/><path d="M272 84h1l1-6 2 6h1l1-8h-1v6h-1l-2-5h-1l-1 6-2-6h-1l3 7Z" fill="#fff"/><path d="M280 83h5v-1h-4v-2h3v-1h-3l-1-2 4-1h-5l1 7Z" fill="#fff"/><path d="m286 83 3-1 2-2-2-2 1-1-2-2h-3l1 8Zm1-1v-3h1l2 1-1 2h-2Zm-1-4v-2h2l1 1-1 1h-2Z" fill="#fff"/><path d="M241 43h1l1-6 2 6h1l1-8-1 1v6l-3-6h-1v6h-1l-2-6-1 1 3 6Z" fill="#fff"/><path d="M249 42h5v-1l-4 1v-3h3v-1h-3l-1-2 4-1h-5l1 7Z" fill="#fff"/><path d="m255 42 3-1c2 0 2-1 2-2l-2-1 1-2-2-2-3 1 1 7Zm1-1v-3h1l2 1-1 2h-2Zm0-3-1-3h2l1 1c1 1 0 1-1 1l-1 1Z" fill="#fff"/><path d="M216 48h1l1-6 2 6h1l1-8h-1v7l-3-6h-1v6l-3-6h-1l3 7Z" fill="#fff"/><path d="M224 47h5v-1l-4 1v-3h3v-1h-3l-1-2 4-1h-5l1 7Z" fill="#fff"/><path d="m230 47 3-1c2 0 2-1 2-2l-2-1v-1l1-1-2-2-3 1 1 7Zm1-1v-3h2l1 1-1 2h-2Zm0-3-1-3h2l2 1-2 1-1 1Z" fill="#fff"/><path d="M178 99h1l1-6 3 6 1-8-1 6-3-5-1 6-3-6 2 7Z" fill="#fff"/><path d="M186 98h5v-1h-4v-2h3v-1h-3v-2l3-1h-4v7Z" fill="#fff"/><path d="m192 98 3-1c2 0 2-1 2-2l-2-2c1 0 2 0 1-1 0-1 0-2-2-2h-3l1 8Zm1-1v-3h2l1 1-1 1-2 1Zm0-4-1-2h2l2 1-2 1h-1Z" fill="#fff"/><path d="M158 117h1l1-6 3 6 2-8h-1l-1 6-2-5h-1l-1 6-3-6 2 7Z" fill="#fff"/><path d="M167 116h4v-1h-4v-2h3v-1h-3v-2l3-1h-4l1 7Z" fill="#fff"/><path d="m172 116 3-1c2 0 2-1 2-2l-1-2v-1c0-1 0-2-2-2h-2v8Zm1-1v-3h2l1 1-1 1-2 1Zm0-4v-2h1l2 1-2 1h-1Z" fill="#fff"/><path d="M190 54h1l1-6 2 6h1l1-8-1 7-3-6h-1v6l-3-6h-1l3 7Z" fill="#fff"/><path d="M198 53h5v-1l-4 1v-3h3v-1h-3v-2l3-1h-4v7Z" fill="#fff"/><path d="m204 53 3-1c2 0 2-1 2-2l-2-1v-1c1 0 2 0 1-1l-2-2-3 1 1 7Zm1-1v-3h2l1 1-1 2h-2Zm0-3-1-3h2l2 1-2 1-1 1Z" fill="#fff"/><path d="M255 62h1l1-6 2 6h1l1-8h-1v7l-3-6h-1l-1 6-2-6h-1l3 7Z" fill="#fff"/><path d="M263 61h5v-1l-4 1v-3h3v-1h-3l-1-2 4-1h-5l1 7Z" fill="#fff"/><path d="m269 61 3-1 2-2c0-1-1-2-2-1v-1l1-1-2-2h-3l1 8Zm1-1v-3h1l2 1-1 2h-2Zm0-3-1-3h2l1 1-1 1-1 1Z" fill="#fff"/><path d="M243 54h1l1-6 2 6h1l1-8h-1v7l-3-6h-1v6h-1l-2-6h-1l3 7Z" fill="#fff"/><path d="M251 53h5v-1l-4 1v-3h3v-1h-3l-1-2 4-1h-5l1 7Z" fill="#fff"/><path d="m257 53 3-1 2-2-2-1v-1l1-1-2-2-3 1 1 7Zm1-1v-3h1l2 1-1 2h-2Zm0-3-1-3h2l1 1c1 1 0 1-1 1l-1 1Z" fill="#fff"/><path d="M217 60h1l1-6 2 6h1l1-8h-1v7l-3-6h-1v6l-3-6h-1l3 7Z" fill="#fff"/><path d="M225 59h5v-1l-4 1v-3h3v-1h-3l-1-2 4-1h-5l1 7Z" fill="#fff"/><path d="m231 59 3-1c2 0 2-1 2-2s-1-2-2-1v-1l1-1-2-2h-3l1 8Zm1-1v-3h2l1 1-1 2h-2Zm0-3-1-3h2l2 1-2 1-1 1Z" fill="#fff"/><path d="M179 111h1l1-6 3 6 1-8-1 6-3-5-1 6-3-6 2 7Z" fill="#fff"/><path d="M187 110h5v-1h-4v-2h3v-1h-3v-2l3-1h-4v7Z" fill="#fff"/><path d="m193 110 3-1c2 0 2-1 2-2l-2-2c1 0 2 0 1-1 0-1 0-2-2-2h-3l1 8Zm1-1v-3h2l1 1-1 1-2 1Zm0-4-1-2h2l2 1-2 1h-1Z" fill="#fff"/><path d="M159 129h1l1-6 3 6 2-8h-1l-1 6-2-5h-1l-1 6-3-6 2 7Z" fill="#fff"/><path d="M168 128h4v-1h-4v-2l3-1h-3v-2l3-1v-1l-4 1 1 7Z" fill="#fff"/><path d="M173 127h3c2 0 2-1 2-2l-1-2v-1c0-1 0-2-2-2h-2v7Zm1 0v-3h2l1 1-1 1-2 1Zm0-4v-2h1l2 1-2 1h-1Z" fill="#fff"/><path d="M202 60h1l1-6 2 6h1l1-8-1 7-3-6h-1v6l-3-6h-1l3 7Z" fill="#fff"/><path d="M210 59h5v-1l-4 1v-3h3v-1h-3l-1-2 4-1h-4v7Z" fill="#fff"/><path d="m216 59 3-1c2 0 2-1 2-2s-1-2-2-1v-1l1-1-2-2h-3l1 8Zm1-1v-3h2l1 1-1 2h-2Zm0-3-1-3h2l2 1-2 1-1 1Z" fill="#fff"/><path d="M177 64h1l1-6 3 6 1-8-1 6v1l-3-6-1 6-3-6 2 7Z" fill="#fff"/><path d="M185 63h5v-1l-4 1v-3h3v-1h-3v-2l3-1h-4v7Z" fill="#fff"/><path d="m191 63 3-1c2 0 2-1 2-2s-1-2-2-1v-1c1 0 2 0 1-1 0-1 0-2-2-2h-3l1 8Zm1-1v-3h2l1 1-1 2h-2Zm0-3-1-3h2l2 1-2 1-1 1Z" fill="#fff"/><path d="M139 115h1l1-6 3 6h1l1-8h-1l-1 6-2-5h-1l-1 6-2-6h-1l2 7Z" fill="#fff"/><path d="M148 114h4v-1h-4v-2h3v-1h-3v-2l3-1h-4l1 7Z" fill="#fff"/><path d="m153 114 3-1c2 0 2-1 2-2l-1-2 1-1c-1-1-1-2-3-2h-2v8Zm1-1v-3h2l1 1-1 1-2 1Zm0-4v-2h1l2 1-2 1h-1Z" fill="#fff"/><path d="M140 125h1l1-6 3 6h1l1-8h-1l-1 6-2-5h-1l-1 6-2-6h-1l2 7Z" fill="#fff"/><path d="M149 124h4v-1h-4v-2h3v-1h-3v-2l3-1h-4l1 7Z" fill="#fff"/><path d="m154 124 3-1c2 0 2-1 2-2l-1-2 1-1c-1-1-1-2-3-2h-2v8Zm1-1v-3h2l1 1-1 1-2 1Zm0-4v-2h1l2 1-2 1h-1Z" fill="#fff"/><path d="M150 102h1l1-6 3 6 2-8h-1l-1 6-2-5h-1l-1 6-3-6 2 7Z" fill="#fff"/><path d="M159 101h4v-1h-4v-2h3v-1h-3v-2l3-1h-4l1 7Z" fill="#fff"/><path d="m164 101 3-1c2 0 2-1 2-2l-1-2 1-1c-1-1-1-2-3-2h-2v8Zm1-1v-3h2l1 1-1 1-2 1Zm0-4v-2h1l2 1-2 1h-1Z" fill="#fff"/><path d="M159 109h1l1-6 3 6 2-8h-1l-1 6-2-5h-1l-1 6-3-6 2 7Z" fill="#fff"/><path d="M168 108h4v-1h-4v-2h3v-1h-3v-2l3-1h-4l1 7Z" fill="#fff"/><path d="m173 108 3-1c2 0 2-1 2-2l-1-2v-1c0-1 0-2-2-2h-2v8Zm1-1v-3h2l1 1-1 1-2 1Zm0-4v-2h1l2 1-2 1h-1Z" fill="#fff"/><path d="M165 92h1l1-6 3 6 2-8h-1l-1 6-2-5h-1l-1 6-3-6 2 7Z" fill="#fff"/><path d="M173 91h5v-1h-4v-2h3v-1h-3v-2l3-1h-4v7Z" fill="#fff"/><path d="m179 91 3-1c2 0 2-1 2-2l-1-2h-1c1 0 2 0 1-1 0-1 0-2-2-2h-2v8Zm1-1v-3h2l1 1-1 1-2 1Zm0-4-1-2h2l2 1-2 1h-1Z" fill="#fff"/><path d="M161 87h1l1-6 3 6 2-8h-1l-1 6-2-5h-1l-1 6-3-6 2 7Z" fill="#fff"/><path d="M170 86h4v-1h-4v-2h3v-1h-3v-2l3-1h-4l1 7Z" fill="#fff"/><path d="m175 86 3-1c2 0 2-1 2-2l-1-2v-1c0-1 0-2-2-2h-2v8Zm1-1v-3h2l1 1-1 2h-2Zm0-4-1-2h2l2 1-2 1h-1Z" fill="#fff"/><path d="M177 81h1l1-6 3 6 1-8-1 6-3-5-1 6-3-6 2 7Z" fill="#fff"/><path d="M185 80h5v-1h-4v-2h3v-1h-3v-2l3-1h-4v7Z" fill="#fff"/><path d="m191 80 3-1c2 0 2-1 2-2l-2-2c1 0 2 0 1-1 0-1 0-2-2-2h-3l1 8Zm1-1v-3h2l1 1-1 2h-2Zm0-4-1-2h2l2 1-2 1h-1Z" fill="#fff"/><path d="M170 74h1l1-6 3 6 2-8h-1l-1 6-2-5h-1l-1 6-3-6 2 7Z" fill="#fff"/><path d="M178 73h5v-1h-4v-2h3v-1h-3v-2l3-1h-4v7Z" fill="#fff"/><path d="m184 73 3-1c2 0 2-1 2-2l-2-2c1 0 2 0 1-1 0-1 0-2-2-2h-2v8Zm1-1v-3h2l1 1-1 2h-2Zm0-4-1-2h2l2 1-2 1h-1Z" fill="#fff"/><path d="M156 74h1l1-6 3 6 2-8h-1l-1 6-2-5h-1l-1 6-3-6 2 7Z" fill="#fff"/><path d="M165 73h4v-1h-4v-2h3v-1h-3v-2l3-1h-4l1 7Z" fill="#fff"/><path d="m170 73 3-1c2 0 2-1 2-2l-1-2 1-1c-1-1-1-2-3-2h-2v8Zm1-1v-3h2l1 1-1 2h-2Zm0-4v-2h1l2 1-2 1h-1Z" fill="#fff"/><path d="M159 62h1l1-6 3 6 2-8h-1l-1 6v1l-2-6h-1l-1 6-3-6 2 7Z" fill="#fff"/><path d="M168 61h4v-1l-4 1v-3h3v-1h-3v-2l3-1h-4l1 7Z" fill="#fff"/><path d="m173 61 3-1c2 0 2-1 2-2l-1-1v-2c0-1 0-2-2-2h-2v8Zm1-1v-3h2l1 1-1 2h-2Zm0-3v-3h1l2 1-2 1-1 1Z" fill="#fff"/><path d="M162 99h1l1-6 3 6 2-8h-1l-1 6-2-5h-1l-1 6-3-6 2 7Z" fill="#fff"/><path d="M171 98h4v-1h-4v-2h3v-1h-3v-2l3-1h-4l1 7Z" fill="#fff"/><path d="m176 98 3-1c2 0 2-1 2-2l-1-2v-1c0-1 0-2-2-2h-2v8Zm1-1v-3h2l1 1-1 1-2 1Zm0-4-1-2h2l2 1-2 1h-1Z" fill="#fff"/><path d="M89 30h1v-6l3 6h1l1-8-1 1-1 6-2-6h-1l-1 6-2-6-1 1 3 6Z" fill="#fff"/><path d="M97 29h4v-1l-4 1v-3h3v-1h-3v-2h3v-1h-4l1 7Z" fill="#fff"/><path d="m103 29 2-1c2 0 3-1 2-2l-1-1 1-2c0-1-1-2-3-2l-2 1 1 7Zm0-1v-3h2l2 1-2 2h-2Zm0-3v-3h1l2 1-1 1-2 1Z" fill="#fff"/><path d="M139 106h1l1-6 3 6h1l1-8h-1l-1 6-2-5h-1l-1 6-2-6h-1l2 7Z" fill="#fff"/><path d="M148 105h4v-1h-4v-2h3v-1h-3v-2l3-1h-4l1 7Z" fill="#fff"/><path d="m153 105 3-1c2 0 2-1 2-2l-1-2 1-1c-1-1-1-2-3-2h-2v8Zm1-1v-3h2l1 1-1 1-2 1Zm0-4v-2h1l2 1-2 1h-1Z" fill="#fff"/><path d="m138 11 1-1 1-5V4l3 6h1l1-8-1 1-1 6-2-6h-1l-1 6-2-6-1 1 2 7Z" fill="#fff"/><path d="m147 10 4-1V8l-4 1V6h3V5h-3V3h3V2h-4l1 8Z" fill="#fff"/><path d="m152 9 3-1c2 0 2-1 2-2l-1-1 1-2c-1-1-1-2-3-2l-2 1v7Zm1-1V5h2l1 1c1 1 0 2-1 2h-2Zm0-3V2h1l2 1-2 1-1 1Z" fill="#fff"/><path d="M187 29h1l1-6 2 6h1l1-8v1l-1 6-3-6h-1v6l-3-6-1 1 3 6Z" fill="#fff"/><path d="M195 28h5v-1l-4 1v-3h3v-1h-3v-2h3v-1h-4v7Z" fill="#fff"/><path d="m201 28 3-1c2 0 2-1 2-2l-2-1c1-1 2-1 1-2l-2-2-3 1 1 7Zm1-1v-3h2l1 1-1 2h-2Zm0-3-1-3h2l2 1-2 1-1 1Z" fill="#fff"/><path d="m173 17 1-1 1-6 3 6 1-8v1l-1 6-2-6h-1l-1 6-3-6v1l2 7Z" fill="#fff"/><path d="m181 16 5-1v-1l-4 1v-3h3v-1h-3V9h3V8h-4v8Z" fill="#fff"/><path d="m187 15 3-1c2 0 2-1 2-2l-2-1c1-1 2-1 1-2 0-1 0-2-2-2l-3 1 1 7Zm1-1v-3h2l1 1-1 2h-2Zm0-3-1-3h2l2 1-2 1-1 1Z" fill="#fff"/><path d="m165 10 1-1 1-5 3 5 2-8-1 1-1 6-2-6h-1l-1 6-3-6v1l2 7Z" fill="#fff"/><path d="m173 9 5-1V7l-4 1V5h3V4h-3V2h3V1h-4v8Z" fill="#fff"/><path d="m179 8 3-1c2 0 2-1 2-2l-1-1h-1c1-1 2-1 1-2 0-1 0-2-2-2l-2 1v7Zm1-1V4h2l1 1-1 2h-2Zm0-3-1-3h2l2 1-2 1-1 1Z" fill="#fff"/><path d="m127 115 1-6 3 6h1l1-8h-1l-1 6-2-5h-1l-1 6-2-6h-1l3 7Z" fill="#fff"/><path d="M135 114h4v-1h-4v-2h3v-1h-3v-2l3-1h-4l1 7Z" fill="#fff"/><path d="m141 114 2-1c2 0 2-1 2-2l-1-2 1-1c-1-1-1-2-3-2h-2l1 8Zm0-1v-3h2l1 1c1 1 0 1-1 1l-2 1Zm0-4v-2h1l2 1-1 1h-2Z" fill="#fff"/><path d="M126 20v-1l1-6 3 6h1l1-8-1 1-1 6-2-6h-1l-1 6-2-6-1 1 3 7Z" fill="#fff"/><path d="m134 19 4-1v-1l-4 1v-3h3v-1h-3v-2h3v-1h-4l1 8Z" fill="#fff"/><path d="m140 18 2-1c2 0 2-1 2-2l-1-1 1-2c-1-1-1-2-3-2l-2 1 1 7Zm0-1v-3h2l1 1c1 1 0 2-1 2h-2Zm0-3v-3h1l2 1-1 1-2 1Z" fill="#fff"/><path d="m102 35 1-6 3 6h1l1-8-1 1-1 6-2-6h-1l-1 6-2-6-1 1 3 6Z" fill="#fff"/><path d="M110 34h4v-1l-4 1v-3h3v-1h-3v-2h3v-1h-4l1 7Z" fill="#fff"/><path d="m116 34 2-1c2 0 2-1 2-2l-1-1 1-2c0-1-1-2-3-2l-2 1 1 7Zm0-1v-3h2l2 1-2 2h-2Zm0-3v-3h1l2 1-1 1-2 1Z" fill="#fff"/><path d="M81 49h1v-6l3 6h1l1-8h-1l-1 7-2-6h-1l-1 6-2-6h-1l3 7Z" fill="#fff"/><path d="M89 48h4v-1l-3 1-1-3h3v-1h-3v-2l3-1h-4l1 7Z" fill="#fff"/><path d="m95 48 2-1c2 0 3-1 2-2l-1-1v-1l1-1c0-1-1-2-3-2l-2 1 1 7Zm0-1v-3h2l2 1-2 2h-2Zm0-3v-3h1l2 1-1 1-2 1Z" fill="#fff"/><path d="M81 34h1v-6l3 6h1l1-8-1 1-1 6-2-6h-1l-1 6-2-6-1 1 3 6Z" fill="#fff"/><path d="M89 33h4v-1l-3 1-1-3h3v-1h-3v-2h3v-1h-4l1 7Z" fill="#fff"/><path d="m95 33 2-1c2 0 3-1 2-2l-1-1 1-2c0-1-1-2-3-2l-2 1 1 7Zm0-1v-3h2l2 1-2 2h-2Zm0-3v-3h1l2 1-1 1-2 1Z" fill="#fff"/><path d="m81 22 1-1v-6l3 6h1l1-8-1 1-1 6-2-6h-1l-1 6-2-6-1 1 3 7Z" fill="#fff"/><path d="m89 21 4-1v-1l-3 1-1-3h3v-1h-3v-2h3v-1h-4l1 8Z" fill="#fff"/><path d="m95 20 2-1c2 0 3-1 2-2l-1-1 1-2c0-1-1-2-3-2l-2 1 1 7Zm0-1v-3h2l2 1-2 2h-2Zm0-3v-3h1l2 1-1 1-2 1Z" fill="#fff"/><path d="M174 38h1l1-6 3 6 1-8v1l-1 6-2-6h-1l-1 6-3-6v1l2 6Z" fill="#fff"/><path d="M182 37h5v-1l-4 1v-3h3v-1h-3v-2h3v-1h-4v7Z" fill="#fff"/><path d="m188 37 3-1c2 0 2-1 2-2l-2-1c1-1 2-1 1-2 0-1 0-2-2-2l-3 1 1 7Zm1-1v-3h2l1 1-1 2h-2Zm0-3-1-3h2l2 1-2 1-1 1Z" fill="#fff"/><path d="m160 26 1-1 1-6 3 6 2-8-1 1-1 6-2-6h-1l-1 6-3-6v1l2 7Z" fill="#fff"/><path d="M169 24h4v-1l-4 1v-3h3v-1h-3v-2h3v-1h-4l1 7Z" fill="#fff"/><path d="m174 24 3-1c2 0 2-1 2-2l-1-1v-2c0-1 0-2-2-2l-2 1v7Zm1-1v-3h2l1 1-1 2h-2Zm0-3v-3h1l2 1-2 1-1 1Z" fill="#fff"/><path d="m152 19 1-1 1-6 3 6 2-8-1 1-1 6-2-6h-1l-1 6-3-6v1l2 7Z" fill="#fff"/><path d="m161 18 4-1v-1l-4 1v-3h3v-1h-3v-2h3v-1h-4l1 8Z" fill="#fff"/><path d="m166 17 3-1c2 0 2-1 2-2l-1-1 1-2c-1-1-1-2-3-2l-2 1v7Zm1-1v-3h2l1 1-1 2h-2Zm0-3v-3h1l2 1-2 1-1 1Z" fill="#fff"/><path d="m120 133 1-6 3 6h1l1-8h-1l-1 6-2-5h-1l-1 6-2-6h-1l3 7Z" fill="#fff"/><path d="M128 132h4v-1h-4v-2l3-1h-3v-2l3-1v-1l-4 1 1 7Z" fill="#fff"/><path d="M134 131h2c2 0 2-1 2-2l-1-2 1-1c-1-1-1-2-3-2h-2l1 7Zm0 0v-3h2l1 1c1 1 0 1-1 1l-2 1Zm0-4v-2h1l2 1-1 1h-2Z" fill="#fff"/><path d="m119 37 1-6 3 6h1l1-8-1 1-1 6-2-6h-1l-1 6-2-6-1 1 3 6Z" fill="#fff"/><path d="M127 36h4v-1l-4 1v-3h3v-1h-3v-2h3v-1h-4l1 7Z" fill="#fff"/><path d="m133 36 2-1c2 0 2-1 2-2l-1-1 1-2c-1-1-1-2-3-2l-2 1 1 7Zm0-1v-3h2l1 1c1 1 0 1-1 2h-2Zm0-3v-3h1l2 1-1 1-2 1Z" fill="#fff"/><path d="M167 56h1l1-6 3 6 2-8h-1l-1 7-2-6h-1l-1 6-3-6 2 7Z" fill="#fff"/><path d="M175 55h5v-1l-4 1v-3h3v-1h-3v-2l3-1h-4v7Z" fill="#fff"/><path d="m181 55 3-1c2 0 2-1 2-2l-1-1-1-1c1 0 2 0 1-1 0-1 0-2-2-2h-2v8Zm1-1v-3h2l1 1-1 2h-2Zm0-3-1-3h2l2 1-2 1-1 1Z" fill="#fff"/><path d="M153 43h1l1-6 3 6 2-8-1 1-1 6-2-6h-1l-1 6-3-6v1l2 6Z" fill="#fff"/><path d="M162 42h4v-1l-4 1v-3h3v-1h-3v-2l3-1h-4l1 7Z" fill="#fff"/><path d="m167 42 3-1c2 0 2-1 2-2l-1-1 1-2c-1-1-1-2-3-2l-2 1v7Zm1-1v-3h2l1 1-1 2h-2Zm0-3v-3h1l2 1-2 1-1 1Z" fill="#fff"/><path d="M145 36h1l1-6 3 6 2-8-1 1-1 6-2-6h-1l-1 6-3-6v1l2 6Z" fill="#fff"/><path d="M154 35h4v-1l-4 1v-3h3v-1h-3v-2h3v-1h-4l1 7Z" fill="#fff"/><path d="m159 35 3-1c2 0 2-1 2-2l-1-1 1-2c-1-1-1-2-3-2l-2 1v7Zm1-1v-3h2l1 1-1 2h-2Zm0-3v-3h1l2 1-2 1-1 1Z" fill="#fff"/><path d="M188 74h1l1-6 2 6h1l1-8-1 6-3-5h-1v6l-3-6h-1l3 7Z" fill="#fff"/><path d="M196 73h5v-1h-4v-2h3v-1h-3v-2l3-1h-4v7Z" fill="#fff"/><path d="m202 73 3-1c2 0 2-1 2-2l-2-2c1 0 2 0 1-1l-2-2h-3l1 8Zm1-1v-3h2l1 1-1 2h-2Zm0-4-1-2h2l2 1-2 1h-1Z" fill="#fff"/><path d="M194 68h1l1-6 2 6h1l1-8-1 6-3-5h-1v6l-3-6h-1l3 7Z" fill="#fff"/><path d="M202 67h5v-1l-4 1v-3h3v-1h-3l-1-2 4-1h-4v7Z" fill="#fff"/><path d="m208 67 3-1c2 0 2-1 2-2s-1-2-2-1v-1c1 0 2 0 1-1l-2-2h-3l1 8Zm1-1v-3h2l1 1-1 2h-2Zm0-3-1-3h2l2 1-2 1-1 1Z" fill="#fff"/><path d="M156 119h1l1-6 3 6 2-8h-1l-1 6-2-5h-1l-1 6-3-6 2 7Z" fill="#fff"/><path d="M165 118h4v-1h-4v-2h3v-1h-3v-2l3-1h-4l1 7Z" fill="#fff"/><path d="m170 118 3-1c2 0 2-1 2-2l-1-2 1-1c-1-1-1-2-3-2h-2v8Zm1-1v-3h2l1 1-1 1-2 1Zm0-4v-2h1l2 1-2 1h-1Z" fill="#fff"/><path d="m155 24 1-1 1-6 3 6 2-8-1 1-1 6-2-6h-1l-1 6-3-6v1l2 7Z" fill="#fff"/><path d="m164 23 4-1v-1l-4 1v-3h3v-1h-3v-2h3v-1h-4l1 8Z" fill="#fff"/><path d="m169 22 3-1c2 0 2-1 2-2l-1-1 1-2c-1-1-1-2-3-2l-2 1v7Zm1-1v-3h2l1 1-1 2h-2Zm0-3v-3h1l2 1-2 1-1 1Z" fill="#fff"/><path d="M204 42h1l1-6 2 6h1l1-8v1l-1 6-3-6h-1v6l-3-6-1 1 3 6Z" fill="#fff"/><path d="M212 41h5v-1l-4 1v-3h3v-1h-3l-1-2 4-1h-5l1 7Z" fill="#fff"/><path d="m218 41 3-1c2 0 2-1 2-2l-2-1 1-2-2-2-3 1 1 7Zm1-1v-3h2l1 1-1 2h-2Zm0-3-1-3h2l2 1-2 1-1 1Z" fill="#fff"/><path d="M209 26h1l1-6 2 6h1l1-8v1l-1 6-3-6h-1v6l-3-6-1 1 3 6Z" fill="#fff"/><path d="M217 25h5v-1l-4 1v-3h3v-1h-3l-1-2h4v-1h-5l1 7Z" fill="#fff"/><path d="m223 25 3-1c2 0 2-1 2-2l-2-1 1-2-2-2-3 1 1 7Zm1-1v-3h2l1 1-1 2h-2Zm0-3-1-3h2l2 1-2 1-1 1Z" fill="#fff"/><path d="m194 17 1-1 1-6 2 6h1l1-8v1l-1 6-3-6h-1v6l-3-6-1 1 3 7Z" fill="#fff"/><path d="m202 16 5-1v-1l-4 1v-3h3v-1h-3l-1-2h4V8h-4v8Z" fill="#fff"/><path d="m208 15 3-1c2 0 2-1 2-2l-2-1c1-1 2-1 1-2l-2-2-3 1 1 7Zm1-1v-3h2l1 1-1 2h-2Zm0-3-1-3h2l2 1-2 1-1 1Z" fill="#fff"/><path d="m179 13 1-1 1-6 3 6 1-8v1l-1 6-3-6-1 6-3-6v1l2 7Z" fill="#fff"/><path d="m187 12 5-1v-1l-4 1V8h3V7h-3V5h3V4h-4v8Z" fill="#fff"/><path d="m193 11 3-1c2 0 2-1 2-2l-2-1c1-1 2-1 1-2 0-1 0-2-2-2l-3 1 1 7Zm1-1V7h2l1 1-1 2h-2Zm0-3-1-3h2l2 1-2 1-1 1Z" fill="#fff"/><path d="M192 37h1l1-6 2 6h1l1-8v1l-1 6-3-6h-1v6l-3-6-1 1 3 6Z" fill="#fff"/><path d="M200 36h5v-1l-4 1v-3h3v-1h-3l-1-2h4v-1h-4v7Z" fill="#fff"/><path d="m206 36 3-1c2 0 2-1 2-2l-2-1c1-1 2-1 1-2l-2-2-3 1 1 7Zm1-1v-3h2l1 1-1 2h-2Zm0-3-1-3h2l2 1-2 1-1 1Z" fill="#fff"/><path d="M212 31h1l1-6 2 6h1l1-8v1l-1 6-3-6h-1v6l-3-6-1 1 3 6Z" fill="#fff"/><path d="M220 30h5v-1l-4 1v-3h3v-1h-3l-1-2h4v-1h-5l1 7Z" fill="#fff"/><path d="m226 30 3-1c2 0 2-1 2-2l-2-1 1-2-2-2-3 1 1 7Zm1-1v-3h2l1 1-1 2h-2Zm0-3-1-3h2l2 1-2 1-1 1Z" fill="#fff"/><path d="M168 47h1l1-6 3 6 2-8h-1l-1 7-2-6h-1l-1 6-3-6 2 7Z" fill="#fff"/><path d="M176 46h5v-1l-4 1v-3h3v-1h-3v-2l3-1h-4v7Z" fill="#fff"/><path d="m182 46 3-1c2 0 2-1 2-2l-2-1v-1c1 0 2 0 1-1 0-1 0-2-2-2l-2 1v7Zm1-1v-3h2l1 1-1 2h-2Zm0-3-1-3h2l2 1-2 1-1 1Z" fill="#fff"/><path d="M190 29h1l1-6 2 6h1l1-8v1l-1 6-3-6h-1v6l-3-6-1 1 3 6Z" fill="#fff"/><path d="M198 28h5v-1l-4 1v-3h3v-1h-3v-2h3v-1h-4v7Z" fill="#fff"/><path d="m204 28 3-1c2 0 2-1 2-2l-2-1c1-1 2-1 1-2l-2-2-3 1 1 7Zm1-1v-3h2l1 1-1 2h-2Zm0-3-1-3h2l2 1-2 1-1 1Z" fill="#fff"/><path d="m182 23 1-1 1-6 2 6h1l1-8v1l-1 6-3-6h-1v6l-3-6v1l2 7Z" fill="#fff"/><path d="m190 22 5-1v-1l-4 1v-3h3v-1h-3v-2h3v-1h-4v8Z" fill="#fff"/><path d="m196 21 3-1c2 0 2-1 2-2l-2-1c1-1 2-1 1-2l-2-2-3 1 1 7Zm1-1v-3h2l1 1-1 2h-2Zm0-3-1-3h2l2 1-2 1-1 1Z" fill="#fff"/><path d="M60 223h1v-6h1l2 5h1l1-7h-1l-1 6-2-6-1 1-1 6-2-6h-1l3 7Z" fill="#fff"/><path d="m68 222 4-1h-3l-1-2 4-1-1-1-3 1v-3h3v-1l-4 1 1 7Z" fill="#fff"/><path d="M74 221h2c2 0 3-1 2-2l-1-2 1-2-3-1h-2l1 7Zm0-1v-2h2l2 1-2 1h-2Zm0-3v-2h3l-1 2h-2Z" fill="#fff"/><path d="M53 206h1v-6h1l2 6 1-1 1-7h-1l-1 6-2-6-1 1-1 6-2-6h-1l3 7Z" fill="#fff"/><path d="m61 205 4-1h-3l-1-2 4-1h-4v-3h3v-1l-4 1 1 7Z" fill="#fff"/><path d="M67 204h2c2 0 3-1 2-2l-1-2 1-2-3-1h-2l1 7Zm0-1v-2h2l2 1-2 1h-2Zm0-3v-2h1c1-1 2 0 2 1l-1 1h-2Z" fill="#fff"/><path d="M70 187h1v-6h1l2 6 1-1 1-7h-1l-1 6-2-5h-1l-1 6-2-6h-1l3 7Z" fill="#fff"/><path d="M78 186h4v-1h-3l-1-2 3-1h-3v-2l3-1v-1l-4 1 1 7Z" fill="#fff"/><path d="M84 185h2c2 0 3-1 2-2l-1-2 1-2-3-1h-2l1 7Zm0-1v-2h2l2 1-2 1h-2Zm0-3v-2h1c1-1 2 0 2 1l-1 1h-2Z" fill="#fff"/><path d="M22 142h1l1-6 2 6h1l1-8h-1l-1 6-2-5h-1l-1 6-2-6h-1l3 7Z" fill="#fff"/><path d="M30 141h4v-1h-3l-1-2 4-1h-4v-2l3-1v-1l-4 1 1 7Z" fill="#fff"/><path d="M36 140h2c2 0 3-1 3-2l-2-2 1-1c0-1-1-2-3-2h-2l1 7Zm1 0-1-3h2l2 1-2 1-1 1Zm-1-4v-2h2l1 1-1 1h-2Z" fill="#fff"/><path d="M136 137h1l1-6 3 6h1l1-8h-1l-1 6-2-5h-1l-1 6-2-6h-1l2 7Z" fill="#fff"/><path d="M145 136h4v-1h-4v-2l3-1h-3v-2l3-1v-1l-4 1 1 7Z" fill="#fff"/><path d="M150 135h3c2 0 2-1 2-2l-1-2 1-1c-1-1-1-2-3-2h-2v7Zm1 0v-3h2l1 1c1 1 0 1-1 1l-2 1Zm0-4v-2h1l2 1-2 1h-1Z" fill="#fff"/><path d="M40 241h1l1-6 2 5h1l1-7h-1l-1 6-2-6h-1l-1 7-2-6h-1l3 7Z" fill="#fff"/><path d="m48 240 4-1h-3l-1-2 4-1-1-1-3 1v-3h3v-1l-4 1 1 7Z" fill="#fff"/><path d="M54 239h2c2 0 3-1 3-2l-2-2 1-2-3-1h-2l1 7Zm1-1-1-2h2c1-1 2 0 2 1l-2 1h-1Zm-1-3v-2l1-1 2 1-1 2h-2Z" fill="#fff"/><path d="M33 224h1l1-6 2 5h1l1-7h-1l-1 6-2-6-1 1-1 6-2-6h-1l3 7Z" fill="#fff"/><path d="m41 223 4-1h-3l-1-2 4-1-1-1-3 1v-3h3v-1l-4 1 1 7Z" fill="#fff"/><path d="M47 222h2c2 0 3-1 3-2l-2-2 1-2-3-1h-2l1 7Zm1-1-1-2h2l2 1-2 1h-1Zm-1-3v-2h3l-1 2h-2Z" fill="#fff"/><path d="M50 205h1l1-6 2 6 1-1 1-7h-1l-1 6-2-6-1 1-1 6-2-6h-1l3 7Z" fill="#fff"/><path d="m58 204 4-1h-3l-1-2 4-1h-4v-3h3v-1l-4 1 1 7Z" fill="#fff"/><path d="M64 203h2c2 0 3-1 2-2l-1-2 1-2-3-1h-2l1 7Zm1-1-1-2h2l2 1-2 1h-1Zm-1-3v-2h1c1-1 2 0 2 1l-1 1h-2Z" fill="#fff"/><path d="M6 145h1l1-6 2 6h1l1-8h-1l-1 6-2-5H7l-1 6-2-6H3l3 7Z" fill="#fff"/><path d="M14 144h4v-1h-3l-1-2 4-1h-4v-2l3-1v-1l-4 1 1 7Z" fill="#fff"/><path d="M20 143h2c2 0 3-1 3-2l-2-2 1-1c0-1-1-2-3-2h-2l1 7Zm1 0-1-3h2l2 1-2 1-1 1Zm-1-4v-2h2l1 1-1 1h-2Z" fill="#fff"/><path d="M11 153h1l1-6 2 6h1l1-8h-1l-1 6-2-5h-1l-1 6-2-6H8l3 7Z" fill="#fff"/><path d="M19 152h4v-1h-3l-1-2 4-1h-4v-2l3-1v-1l-4 1 1 7Z" fill="#fff"/><path d="M25 151h2c2 0 3-1 3-2l-2-2 1-1c0-1-1-2-3-2h-2l1 7Zm1 0-1-3h2l2 1-2 1-1 1Zm-1-4v-2h2l1 1-1 1h-2Z" fill="#fff"/><path d="M3 166h1l1-6 2 6h1l1-8H8l-1 6-2-5H4l-1 6-2-6H0l3 7Z" fill="#fff"/><path d="M11 165h4v-1h-3l-1-2 4-1h-4v-2l3-1v-1l-4 1 1 7Z" fill="#fff"/><path d="M17 164h2c2 0 3-1 3-2l-2-2 1-1c0-2-1-2-3-2h-2l1 7Zm1 0-1-3h2l2 1-2 1-1 1Zm-1-4v-2h2l1 1-1 1h-2Z" fill="#fff"/><path d="M27 151h1l1-6 2 6h1l1-8h-1l-1 6-2-5h-1l-1 6-2-6h-1l3 7Z" fill="#fff"/><path d="M35 150h4v-1h-3l-1-2 4-1h-4v-2l3-1v-1l-4 1 1 7Z" fill="#fff"/><path d="M41 149h2c2 0 3-1 3-2l-2-2 1-1c0-1-1-2-3-2h-2l1 7Zm1 0-1-3h2l2 1-2 1-1 1Zm-1-4v-2h2l1 1-1 1h-2Z" fill="#fff"/><path d="M51 164h1l1-6 2 6h1l1-8h-1l-1 6-2-5h-1l-1 6-2-6h-1l3 7Z" fill="#fff"/><path d="M59 163h4v-1h-3l-1-2 4-1h-4v-2l3-1v-1l-4 1 1 7Z" fill="#fff"/><path d="M65 162h2c2 0 3-1 2-2l-1-2 1-1c0-2-1-2-3-2h-2l1 7Zm1 0-1-3h2l2 1-2 1-1 1Zm-1-4v-2h1l2 1-1 1h-2Z" fill="#fff"/><path d="M70 180h1v-6h1l2 6 1-1 1-7h-1l-1 6-2-5h-1l-1 6-2-6h-1l3 7Z" fill="#fff"/><path d="M78 179h4v-1h-3l-1-2 3-1h-3v-2l3-1v-1l-4 1 1 7Z" fill="#fff"/><path d="M84 178h2c2 0 3-1 2-2l-1-2 1-2-3-1h-2l1 7Zm0-1v-2h2l2 1-2 1h-2Zm0-3v-2h1l2 1-1 1h-2Z" fill="#fff"/><path d="M28 172h1l1-6 2 6 1-1 1-7h-1l-1 6-2-5h-1l-1 6-2-6h-1l3 7Z" fill="#fff"/><path d="M36 171h4v-1h-3l-1-2 4-1h-4v-2l3-1v-1l-4 1 1 7Z" fill="#fff"/><path d="M42 170h2c2 0 3-1 3-2l-2-2 1-1c0-2-1-2-3-2h-2l1 7Zm1-1-1-2h2l2 1-2 1h-1Zm-1-3v-2h2l1 1-1 1h-2Z" fill="#fff"/><path d="m119 254 1-6 3 5h1l1-7h-1l-1 6-2-6h-1l-1 6v1l-2-6h-1l3 7Z" fill="#fff"/><path d="m127 253 4-1h-4v-2l3-1v-1l-3 1v-3h3v-1l-4 1 1 7Z" fill="#fff"/><path d="M133 252h2c2 0 2-1 2-2l-1-2 1-2c-1-1-1-2-3-1h-2l1 7Zm0-1v-2h2c1-1 1 0 1 1l-1 1h-2Zm0-3v-2l1-1 2 1-1 2h-2Z" fill="#fff"/><path d="M43 248h1l1-6 2 5h1l1-7h-1l-1 6-2-6h-1l-1 7-2-6h-1l3 7Z" fill="#fff"/><path d="m51 247 4-1h-3l-1-2 4-1-1-1-3 1v-3h3v-1l-4 1 1 7Z" fill="#fff"/><path d="M57 246h2c2 0 3-1 3-2l-2-2 1-2c0-1-1-2-3-1h-2l1 7Zm1-1-1-2h2c1-1 2 0 2 1l-2 1h-1Zm-1-3v-2l1-1 2 1-1 2h-2Z" fill="#fff"/><path d="M32 236h1l1-6 2 5h1l1-7h-1l-1 6-2-6h-1l-1 7-2-6h-1l3 7Z" fill="#fff"/><path d="m40 235 4-1h-3l-1-2 4-1-1-1-3 1v-3h3v-1l-4 1 1 7Z" fill="#fff"/><path d="M46 234h2c2 0 3-1 3-2l-2-2 1-2-3-1h-2l1 7Zm1-1-1-2h2c1-1 2 0 2 1l-2 1h-1Zm-1-3v-2l2-1 1 1-1 2h-2Z" fill="#fff"/><path d="M12 114h1l1-6 2 6h1l1-8h-1l-1 6-2-5h-1l-1 6-2-6H9l3 7Z" fill="#fff"/><path d="M20 113h4v-1h-3l-1-2h4v-1h-4v-2l3-1h-4l1 7Z" fill="#fff"/><path d="m26 113 2-1c2 0 3-1 3-2l-2-2 1-1c0-1-1-2-3-2h-2l1 8Zm1-1-1-3h2l2 1-2 1-1 1Zm-1-4v-2h2l1 1-1 1h-2Z" fill="#fff"/><path d="M26 82h1l1-6 2 6h1l1-8h-1l-1 6-2-5h-1l-1 6-2-6h-1l3 7Z" fill="#fff"/><path d="M34 81h4v-1h-3l-1-2h4v-1h-4v-2l3-1h-4l1 7Z" fill="#fff"/><path d="m40 81 2-1c2 0 3-1 3-2l-2-2 1-1c0-1-1-2-3-2h-2l1 8Zm1-1-1-3h2l2 1-2 2h-1Zm-1-4v-2h2l1 1-1 1h-2Z" fill="#fff"/><path d="M25 73h1l1-6 2 6h1l1-8h-1l-1 6-2-5h-1l-1 6-2-6h-1l3 7Z" fill="#fff"/><path d="M33 72h4v-1h-3l-1-2h4v-1h-4v-2l3-1h-4l1 7Z" fill="#fff"/><path d="m39 72 2-1c2 0 3-1 3-2l-2-2 1-1c0-1-1-2-3-2h-2l1 8Zm1-1-1-3h2l2 1-2 2h-1Zm-1-3v-3h2l1 1-1 1-2 1Z" fill="#fff"/><path d="M37 66h1l1-6 2 6h1l1-8h-1l-1 6-2-5h-1l-1 6-2-6h-1l3 7Z" fill="#fff"/><path d="M45 65h4v-1l-3 1-1-3h4l-1-1h-3v-2l3-1h-4l1 7Z" fill="#fff"/><path d="m51 65 2-1c2 0 3-1 3-2-1-1-1-2-2-1v-1l1-1c0-1-1-2-3-2h-2l1 8Zm1-1-1-3h2l2 1-2 2h-1Zm-1-3v-3h1l2 1-1 1-2 1Z" fill="#fff"/><path d="M199 78h1l1-6 2 6h1l1-8-1 6-3-5h-1v6l-3-6h-1l3 7Z" fill="#fff"/><path d="M207 77h5v-1h-4v-2h3v-1h-3l-1-2 4-1h-4v7Z" fill="#fff"/><path d="m213 77 3-1c2 0 2-1 2-2l-2-2 1-1-2-2h-3l1 8Zm1-1v-3h2l1 1-1 2h-2Zm0-4-1-2h2l2 1-2 1h-1Z" fill="#fff"/><path d="M185 87h1l1-6 2 6h1l1-8-1 6-3-5h-1v6l-3-6h-1l3 7Z" fill="#fff"/><path d="M193 86h5v-1h-4v-2h3v-1h-3v-2l3-1h-4v7Z" fill="#fff"/><path d="m199 86 3-1c2 0 2-1 2-2l-2-2c1 0 2 0 1-1l-2-2h-3l1 8Zm1-1v-3h2l1 1-1 2h-2Zm0-4-1-2h2l2 1-2 1h-1Z" fill="#fff"/><path d="M112 19v-1l1-6 3 6h1l1-8-1 1-1 6-2-6h-1l-1 6-2-6-1 1 3 7Z" fill="#fff"/><path d="m120 18 4-1v-1l-4 1v-3h3v-1h-3v-2h3v-1h-4l1 8Z" fill="#fff"/><path d="m126 17 2-1c2 0 2-1 2-2l-1-1 1-2c-1-1-1-2-3-2l-2 1 1 7Zm0-1v-3h2l1 1c1 1 0 2-1 2h-2Zm0-3v-3h1l2 1-1 1-2 1Z" fill="#fff"/><path d="M147 138h1l1-6 3 6 2-8h-1l-1 6-2-5h-1l-1 6-3-6 2 7Z" fill="#fff"/><path d="M156 137h4v-1h-4v-2l3-1h-3v-2l3-1v-1l-4 1 1 7Z" fill="#fff"/><path d="M161 136h3c2 0 2-1 2-2l-1-2 1-1c-1-1-1-2-3-2h-2v7Zm1 0v-3h2l1 1-1 1-2 1Zm0-4v-2h1l2 1-2 1h-1Z" fill="#fff"/><path d="M146 42h1l1-6 3 6 2-8-1 1-1 6-2-6h-1l-1 6-3-6v1l2 6Z" fill="#fff"/><path d="M155 41h4v-1l-4 1v-3h3v-1h-3v-2l3-1h-4l1 7Z" fill="#fff"/><path d="m160 41 3-1c2 0 2-1 2-2l-1-1 1-2c-1-1-1-2-3-2l-2 1v7Zm1-1v-3h2l1 1-1 2h-2Zm0-3v-3h1l2 1-2 1-1 1Z" fill="#fff"/><path d="M195 61h1l1-6 2 6h1l1-8-1 7-3-6h-1v6l-3-6h-1l3 7Z" fill="#fff"/><path d="M203 60h5v-1l-4 1v-3h3v-1h-3l-1-2 4-1h-4v7Z" fill="#fff"/><path d="m209 60 3-1c2 0 2-1 2-2s-1-2-2-1v-1c1 0 2 0 1-1l-2-2h-3l1 8Zm1-1v-3h2l1 1-1 2h-2Zm0-3-1-3h2l2 1-2 1-1 1Z" fill="#fff"/><path d="M181 48h1l1-6 2 6h1l1-8-1 7-3-6h-1v6l-3-6 2 7Z" fill="#fff"/><path d="M189 47h5v-1l-4 1v-3h3v-1h-3v-2l3-1h-4v7Z" fill="#fff"/><path d="m195 47 3-1c2 0 2-1 2-2l-2-1v-1c1 0 2 0 1-1l-2-2-3 1 1 7Zm1-1v-3h2l1 1-1 2h-2Zm0-3-1-3h2l2 1-2 1-1 1Z" fill="#fff"/><path d="M173 41h1l1-6 3 6 1-8v1l-1 6-2-6h-1l-1 6-3-6v1l2 6Z" fill="#fff"/><path d="M181 40h5v-1l-4 1v-3h3v-1h-3v-2h3v-1h-4v7Z" fill="#fff"/><path d="m187 40 3-1c2 0 2-1 2-2l-2-1c1-1 2-1 1-2 0-1 0-2-2-2l-3 1 1 7Zm1-1v-3h2l1 1-1 2h-2Zm0-3-1-3h2l2 1-2 1-1 1Z" fill="#fff"/><path d="M51 242h1l1-6 2 5h1l1-7h-1l-1 6-2-6h-1l-1 7-2-6h-1l3 7Z" fill="#fff"/><path d="m59 241 4-1h-3l-1-2 4-1-1-1-3 1v-3h3v-1l-4 1 1 7Z" fill="#fff"/><path d="M65 240h2c2 0 3-1 2-2l-1-2 1-2c0-1-1-2-3-1h-2l1 7Zm1-1-1-2h2c1-1 2 0 2 1l-2 1h-1Zm-1-3v-2l1-1 2 1-1 2h-2Z" fill="#fff"/><path d="M44 225h1l1-6 2 5h1l1-7h-1l-1 6-2-6-1 1-1 6-2-6h-1l3 7Z" fill="#fff"/><path d="m52 224 4-1h-3l-1-2 4-1-1-1-3 1v-3h3v-1l-4 1 1 7Z" fill="#fff"/><path d="M58 223h2c2 0 3-1 3-2l-2-2 1-2-3-1h-2l1 7Zm1-1-1-2h2l2 1-2 1h-1Zm-1-3v-2h3l-1 2h-2Z" fill="#fff"/><path d="M61 206h1v-6h1l2 6 1-1 1-7h-1l-1 6-2-6-1 1-1 6-2-6h-1l3 7Z" fill="#fff"/><path d="m69 205 4-1h-3l-1-2 4-1h-4v-3h3v-1l-4 1 1 7Z" fill="#fff"/><path d="M75 204h2c2 0 3-1 2-2l-1-2 1-2-3-1h-2l1 7Zm0-1v-2h2l2 1-2 1h-2Zm0-3v-2h1c1-1 2 0 2 1l-1 1h-2Z" fill="#fff"/><path d="M13 161h1l1-6 2 6h1l1-8h-1l-1 6-2-5h-1l-1 6-2-6h-1l3 7Z" fill="#fff"/><path d="M21 160h4v-1h-3l-1-2 4-1h-4v-2l3-1v-1l-4 1 1 7Z" fill="#fff"/><path d="M27 159h2c2 0 3-1 3-2l-2-2 1-1c0-2-1-2-3-2h-2l1 7Zm1 0-1-3h2l2 1-2 1-1 1Zm-1-4v-2h2l1 1-1 1h-2Z" fill="#fff"/><path d="M138 129h1l1-6 3 6h1l1-8h-1l-1 6-2-5h-1l-1 6-2-6h-1l2 7Z" fill="#fff"/><path d="M147 128h4v-1h-4v-2l3-1h-3v-2l3-1v-1l-4 1 1 7Z" fill="#fff"/><path d="M152 127h3c2 0 2-1 2-2l-1-2 1-1c-1-1-1-2-3-2h-2v7Zm1 0v-3h2l1 1c1 1 0 1-1 1l-2 1Zm0-4v-2h1l2 1-2 1h-1Z" fill="#fff"/><path d="m118 27 1-6 3 6h1l1-8-1 1-1 6-2-6h-1l-1 6-2-6-1 1 3 6Z" fill="#fff"/><path d="M126 26h4v-1l-4 1v-3h3v-1h-3v-2h3v-1h-4l1 7Z" fill="#fff"/><path d="m132 26 2-1c2 0 2-1 2-2l-1-1 1-2c-1-1-1-2-3-2l-2 1 1 7Zm0-1v-3h2l1 1c1 1 0 2-1 2h-2Zm0-3v-3h1l2 1-1 1-2 1Z" fill="#fff"/><path d="M138 28h1l1-6 3 6h1l1-8-1 1-1 6-2-6h-1l-1 6-2-6-1 1 2 6Z" fill="#fff"/><path d="M147 27h4v-1l-4 1v-3h3v-1h-3v-2h3v-1h-4l1 7Z" fill="#fff"/><path d="m152 27 3-1c2 0 2-1 2-2l-1-1 1-2c-1-1-1-2-3-2l-2 1v7Zm1-1v-3h2l1 1c1 1 0 2-1 2h-2Zm0-3v-3h1l2 1-2 1-1 1Z" fill="#fff"/><path d="M119 13v-1l1-6 3 6h1l1-8-1 1-1 6-2-6h-1l-1 6-2-6-1 1 3 7Z" fill="#fff"/><path d="m127 12 4-1v-1l-4 1V8h3V7h-3V5h3V4h-4l1 8Z" fill="#fff"/><path d="m133 11 2-1c2 0 2-1 2-2l-1-1 1-2c-1-1-1-2-3-2l-2 1 1 7Zm0-1V7h2l1 1c1 1 0 2-1 2h-2Zm0-3V4h1l2 1-1 1-2 1Z" fill="#fff"/><path d="M137 33h1l1-6 3 6h1l1-8-1 1-1 6-2-6h-1l-1 6-2-6-1 1 2 6Z" fill="#fff"/><path d="M146 32h4v-1l-4 1v-3h3v-1h-3v-2h3v-1h-4l1 7Z" fill="#fff"/><path d="m151 32 3-1c2 0 2-1 2-2l-1-1 1-2c-1-1-1-2-3-2l-2 1v7Zm1-1v-3h2l1 1c1 1 0 2-1 2h-2Zm0-3v-3h1l2 1-2 1-1 1Z" fill="#fff"/><path d="M186 52h1l1-6 2 6h1l1-8-1 7-3-6h-1v6l-3-6h-1l3 7Z" fill="#fff"/><path d="M194 51h5v-1l-4 1v-3h3v-1h-3v-2l3-1h-4v7Z" fill="#fff"/><path d="m200 51 3-1c2 0 2-1 2-2l-2-1v-1c1 0 2 0 1-1l-2-2-3 1 1 7Zm1-1v-3h2l1 1-1 2h-2Zm0-3-1-3h2l2 1-2 1-1 1Z" fill="#fff"/><path d="M172 39h1l1-6 3 6 1-8v1l-1 6-2-6h-1l-1 6-3-6v1l2 6Z" fill="#fff"/><path d="M180 38h5v-1l-4 1v-3h3v-1h-3v-2h3v-1h-4v7Z" fill="#fff"/><path d="m186 38 3-1c2 0 2-1 2-2l-2-1c1-1 2-1 1-2 0-1 0-2-2-2l-3 1 1 7Zm1-1v-3h2l1 1-1 2h-2Zm0-3-1-3h2l2 1-2 1-1 1Z" fill="#fff"/><path d="M164 32h1l1-6 3 6 2-8-1 1-1 6-2-6h-1l-1 6-3-6v1l2 6Z" fill="#fff"/><path d="M172 31h5v-1l-4 1v-3h3v-1h-3v-2h3v-1h-4v7Z" fill="#fff"/><path d="m178 31 3-1c2 0 2-1 2-2l-1-1v-2c0-1 0-2-2-2l-2 1v7Zm1-1v-3h2l1 1-1 2h-2Zm0-3-1-3h2l2 1-2 1-1 1Z" fill="#fff"/><path d="m128 156 1-6 3 6h1l1-8h-1l-1 6-2-5h-1l-1 6-2-6h-1l3 7Z" fill="#fff"/><path d="M136 155h4v-1h-4v-2l3-1h-3v-2l3-1v-1l-4 1 1 7Z" fill="#fff"/><path d="M142 154h2c2 0 2-1 2-2l-1-2 1-1c-1-2-1-2-3-2h-2l1 7Zm0 0v-3h2l1 1c1 1 0 1-1 1l-2 1Zm0-4v-2h1l2 1-1 1h-2Z" fill="#fff"/><path d="M253 59h1l1-6 2 6h1l1-8h-1v7l-3-6h-1l-1 6-2-6h-1l3 7Z" fill="#fff"/><path d="M261 58h5v-1l-4 1v-3h3v-1h-3l-1-2 4-1h-5l1 7Z" fill="#fff"/><path d="m267 58 3-1 2-2c0-1-1-2-2-1v-1l1-1-2-2h-3l1 8Zm1-1v-3h1l2 1-1 2h-2Zm0-3-1-3h2l1 1-1 1-1 1Z" fill="#fff"/><path d="M187 231h1l1-6 2 5h1l1-7h-1l-1 6-2-6-1 1-1 6-2-6h-1l3 7Z" fill="#fff"/><path d="m195 230 4-1h-3v-2l3-1v-1l-4 1v-3h4v-1l-5 1 1 7Z" fill="#fff"/><path d="M201 229h3l2-2-2-2 1-2-2-1h-3l1 7Zm1-1-1-2h2l2 1-1 1h-2Zm-1-3v-2l2-1 1 1-1 2h-2Z" fill="#fff"/><path d="M183 259h1l1-6 2 5h1l1-7h-1l-1 6-2-6h-1l-1 6-2-5h-1l3 7Z" fill="#fff"/><path d="m191 258 5-1h-4v-2l3-1v-1l-4 1v-3h4v-1l-5 1 1 7Z" fill="#fff"/><path d="M197 257h3l2-2c0-2-1-2-2-2l1-2c0-1-1-2-2-1h-3l1 7Zm1-1-1-2h2c1-1 2 0 2 1l-1 1h-2Zm-1-3v-2l2-1 1 1-1 2h-2Z" fill="#fff"/><path d="M205 253h1l1-6 2 5h1l1-7h-1l-1 6-2-6h-1l-1 6v1l-2-6h-1l3 7Z" fill="#fff"/><path d="m213 252 4-1h-3v-2l3-1v-1l-4 1v-3h4l-1-1-4 1 1 7Z" fill="#fff"/><path d="M219 251h3l2-2c0-2-1-2-2-2l1-2c0-1-1-2-2-1h-3l1 7Zm1-1-1-2h2c1-1 2 0 2 1l-2 1h-1Zm-1-3v-2l2-1 1 1-1 2h-2Z" fill="#fff"/><path d="M189 208h1l1-6 2 6 1-1 1-7-1 6-3-6-1 1v6l-3-6h-1l3 7Z" fill="#fff"/><path d="m197 207 5-1h-4v-2l3-1h-3v-3h3v-1l-4 1v7Z" fill="#fff"/><path d="M203 206h3c2 0 2-1 2-2l-2-2c1 0 2-1 1-2l-2-1h-3l1 7Zm1-1v-2h2l1 1-1 1h-2Zm0-3-1-2h2c1-1 2 0 2 1l-2 1h-1Z" fill="#fff"/><path d="M174 250h1l1-6 3 5 1-7-1 6-2-6h-1l-1 7-3-6 2 7Z" fill="#fff"/><path d="m182 249 5-1h-4v-2l3-1v-1l-3 1v-3h3v-1l-4 1v7Z" fill="#fff"/><path d="M188 248h3c2 0 2-1 2-2 0-2-1-2-2-2 1 0 2-1 1-2 0-1 0-2-2-1h-3l1 7Zm1-1v-2h2c1-1 1 0 1 1l-1 1h-2Zm0-3-1-2 2-1 2 1-2 2h-1Z" fill="#fff"/><path d="M213 248h1l1-6 2 5h1l1-7-1 6-3-6h-1v7l-3-6h-1l3 7Z" fill="#fff"/><path d="m221 247 5-1h-4v-2l3-1v-1l-3 1-1-3h4v-1l-5 1 1 7Z" fill="#fff"/><path d="M227 246h3c2 0 2-1 2-2l-2-2 1-2c0-1-1-2-2-1h-3l1 7Zm1-1v-2h2l1 1-1 1h-2Zm0-3-1-2 2-1 2 1-2 2h-1Z" fill="#fff"/><path d="m112 278 1-6 3 5h1l1-7h-1l-1 6-2-6h-1l-1 6-2-5h-1l3 7Z" fill="#fff"/><path d="m120 277 4-1h-4v-2l3-1v-1l-3 1v-3h3v-1l-4 1 1 7Z" fill="#fff"/><path d="M126 276h2c2 0 2-1 2-2l-1-2 1-2c-1-1-1-2-3-1h-2l1 7Zm0-1v-2l2-1 1 2-1 1h-2Zm0-3v-2l1-1 2 1-1 2h-2Z" fill="#fff"/><path d="m97 272 1-6 3 5h1l1-7h-1l-1 6-2-6h-1l-1 6-2-5h-1l3 7Z" fill="#fff"/><path d="m105 271 4-1h-4v-2l3-1v-1l-3 1v-3h3v-1l-4 1 1 7Z" fill="#fff"/><path d="M111 270h2c2 0 3-1 2-2l-1-2 1-2c0-1-1-2-3-1h-2l1 7Zm0-1v-2h2c1-1 1 0 2 1l-2 1h-2Zm0-3v-2l1-1 2 1-1 2h-2Z" fill="#fff"/></svg>